<svg width="1039" height="653" viewBox="0 0 1039 653" fill="none" xmlns="http://www.w3.org/2000/svg">
<g clip-path="url(#clip0_15_2593)">
<rect width="1039" height="653" fill="#FFF4DC"/>
<path d="M383 462.5C307 370.1 102.667 436.333 10 481V822C354.167 824.833 1039.8 823.4 1029 795C1015.5 759.5 935.5 650.5 864.5 611.5C793.5 572.5 634 678 595 676C556 674 478 578 383 462.5Z" fill="#FA6E21" fill-opacity="0.1"/>
<path d="M53.9706 117.343C53.9706 117.343 63.1404 116.258 66.651 112.236C69.686 108.759 70.3137 101 70.3137 101C70.3137 101 70.9415 108.759 73.9764 112.236C77.4871 116.258 86.6569 117.343 86.6569 117.343C86.6569 117.343 77.4871 118.428 73.9764 122.45C70.9415 125.927 70.3137 133.686 70.3137 133.686C70.3137 133.686 69.686 125.927 66.651 122.45C63.1404 118.428 53.9706 117.343 53.9706 117.343Z" fill="#FA6E21"/>
<path d="M904.328 117.956C904.328 117.956 905.414 127.126 909.436 130.636C912.912 133.671 920.672 134.299 920.672 134.299C920.672 134.299 912.913 134.927 909.436 137.962C905.414 141.472 904.328 150.642 904.328 150.642C904.328 150.642 903.243 141.472 899.221 137.962C895.744 134.927 887.985 134.299 887.985 134.299C887.985 134.299 895.744 133.671 899.221 130.636C903.243 127.126 904.328 117.956 904.328 117.956Z" fill="#FA6E21"/>
<path d="M902.525 551.226C902.525 551.226 904.177 565.179 910.296 570.521C915.587 575.139 927.393 576.095 927.393 576.095C927.393 576.095 915.587 577.05 910.296 581.668C904.177 587.01 902.525 600.963 902.525 600.963C902.525 600.963 900.874 587.01 894.754 581.668C889.463 577.05 877.657 576.095 877.657 576.095C877.657 576.095 889.463 575.139 894.754 570.521C900.874 565.179 902.525 551.226 902.525 551.226Z" fill="#FA6E21"/>
<path d="M96.6798 568.253C96.6798 568.253 97.7672 577.44 101.797 580.957C105.28 583.997 113.053 584.626 113.053 584.626C113.053 584.626 105.28 585.255 101.797 588.296C97.7672 591.813 96.6798 601 96.6798 601C96.6798 601 95.5925 591.813 91.563 588.296C88.0796 585.255 80.3061 584.626 80.3061 584.626C80.3061 584.626 88.0796 583.997 91.563 580.957C95.5925 577.44 96.6798 568.253 96.6798 568.253Z" fill="#FA6E21"/>
<path d="M47.0294 100.343C47.0294 100.343 50.5719 99.9239 51.9281 98.3701C53.1006 97.0269 53.3431 94.0294 53.3431 94.0294C53.3431 94.0294 53.5856 97.0269 54.7581 98.3701C56.1143 99.9239 59.6568 100.343 59.6568 100.343C59.6568 100.343 56.1143 100.762 54.7581 102.316C53.5856 103.659 53.3431 106.657 53.3431 106.657C53.3431 106.657 53.1006 103.659 51.9281 102.316C50.5719 100.762 47.0294 100.343 47.0294 100.343Z" fill="#FA6E21"/>
<path d="M921.328 111.015C921.328 111.015 921.748 114.557 923.301 115.913C924.645 117.086 927.642 117.328 927.642 117.328C927.642 117.328 924.645 117.571 923.301 118.743C921.748 120.1 921.328 123.642 921.328 123.642C921.328 123.642 920.909 120.1 919.355 118.743C918.012 117.571 915.015 117.328 915.015 117.328C915.015 117.328 918.012 117.086 919.355 115.913C920.909 114.557 921.328 111.015 921.328 111.015Z" fill="#FA6E21"/>
<path d="M928.393 540.665C928.393 540.665 929.031 546.055 931.395 548.119C933.439 549.903 938 550.272 938 550.272C938 550.272 933.439 550.641 931.395 552.425C929.031 554.488 928.393 559.879 928.393 559.879C928.393 559.879 927.755 554.488 925.391 552.425C923.347 550.641 918.786 550.272 918.786 550.272C918.786 550.272 923.347 549.903 925.391 548.119C927.755 546.055 928.393 540.665 928.393 540.665Z" fill="#FA6E21"/>
<path d="M113.712 561.298C113.712 561.298 114.132 564.848 115.688 566.206C117.034 567.381 120.037 567.624 120.037 567.624C120.037 567.624 117.034 567.867 115.688 569.042C114.132 570.4 113.712 573.949 113.712 573.949C113.712 573.949 113.291 570.4 111.735 569.042C110.389 567.867 107.386 567.624 107.386 567.624C107.386 567.624 110.389 567.381 111.735 566.206C113.291 564.848 113.712 561.298 113.712 561.298Z" fill="#FA6E21"/>
<path d="M-50 117C-20.6667 121.167 45.1 147.7 73.5 220.5C109 311.5 -22 460 -20.5 517" stroke="#FA6E21" stroke-dasharray="14 14"/>
<path d="M1104.07 45C1044.57 69.6667 928.568 133.4 940.568 191C955.568 263 1001.57 294.5 983.568 334C965.568 373.5 890.568 438 923.068 478C955.568 518 1040.57 576 1104.07 584.5" stroke="#FA6E21" stroke-dasharray="20 20"/>
</g>
<defs>
<clipPath id="clip0_15_2593">
<rect width="1039" height="653" fill="white"/>
</clipPath>
</defs>
</svg>
