<svg width="91" height="112" viewBox="0 0 91 112" fill="none" xmlns="http://www.w3.org/2000/svg">
<rect x="1.5" y="1.5" width="88" height="109" rx="6.5" fill="#FFE9B6"/>
<rect x="1.5" y="1.5" width="88" height="109" rx="6.5" stroke="white" stroke-width="3"/>
<path d="M12 6H8C6.89543 6 6 6.89543 6 8V12.5" stroke="#FA6E21" stroke-opacity="0.4" stroke-width="3" stroke-linecap="round" stroke-linejoin="bevel"/>
<path d="M19 6H17" stroke="#FA6E21" stroke-opacity="0.4" stroke-width="3" stroke-linecap="round" stroke-linejoin="bevel"/>
<path d="M6 27L6 18" stroke="#FA6E21" stroke-opacity="0.4" stroke-width="3" stroke-linecap="round" stroke-linejoin="bevel"/>
<path d="M78 105L82 105C83.1046 105 84 104.105 84 103L84 98" stroke="#E8C475" stroke-width="3" stroke-linecap="round" stroke-linejoin="bevel"/>
<path d="M71 105L73 105" stroke="#E8C475" stroke-width="3" stroke-linecap="round" stroke-linejoin="bevel"/>
<path d="M84 84L84 93" stroke="#E8C475" stroke-width="3" stroke-linecap="round" stroke-linejoin="bevel"/>
<g clip-path="url(#clip0_14_2560)">
<path d="M45.6533 85.6452C59.6146 85.6452 70.9325 74.3273 70.9325 60.366C70.9325 46.4046 59.6146 35.0867 45.6533 35.0867C31.6919 35.0867 20.374 46.4046 20.374 60.366C20.374 74.3273 31.6919 85.6452 45.6533 85.6452Z" fill="#52D2FF"/>
<path d="M35.3863 88.2707C27.2912 88.2707 20.7293 81.7088 20.7293 73.6137C20.9793 64.876 25.7403 59.5334 34.5508 54.858C43.6153 50.0507 50.186 41.8395 52.4356 38.7721C53.4719 37.3589 54.949 36.302 56.6485 35.8779C57.916 35.561 59.4148 35.5433 60.9145 36.3434C64.7318 38.3794 64.9916 48.8984 61.7835 59.8975C58.5754 70.8937 51.0284 88.2698 35.3863 88.2698V88.2707Z" fill="#B153F4"/>
<path d="M60.8279 58.2019C57.6198 69.1981 50.0758 86.5741 34.4308 86.5741C29.2958 86.5741 24.7808 83.9358 22.1611 79.9394C21.245 78.0234 20.7303 75.881 20.7303 73.6147C20.7706 72.2202 20.9271 70.9104 21.1938 69.6764C23.5517 74.6214 28.5912 78.0372 34.4308 78.0372C50.0768 78.0372 57.6208 60.6611 60.8279 49.6649C61.7845 46.3879 62.434 43.1503 62.7695 40.1646C63.4771 44.7081 62.8247 51.3615 60.8279 58.2009V58.2019Z" fill="#7F3CC6"/>
<g opacity="0.6">
<path d="M21.7705 75.0101C22.0204 66.2724 26.7814 60.9298 35.592 56.2544C44.6564 51.4471 51.2272 43.2359 53.4768 40.1685C54.513 38.7554 55.9902 37.6984 57.6897 37.2743C58.9572 36.9574 60.456 36.9397 61.9557 37.7398C62.1919 37.8657 62.4143 38.0252 62.6229 38.2141C62.1663 37.3501 61.5985 36.7085 60.9145 36.3434C59.4148 35.5433 57.916 35.561 56.6485 35.8779C54.948 36.303 53.4719 37.3589 52.4356 38.7721C50.186 41.8395 43.6153 50.0507 34.5508 54.858C25.7413 59.5334 20.9793 64.876 20.7303 73.6137C20.7303 77.2076 22.0263 80.4984 24.1736 83.0482C22.6561 80.7395 21.7715 77.9791 21.7715 75.0101H21.7705Z" fill="white"/>
</g>
<g opacity="0.25">
<path d="M29.2308 71.6682C27.9348 71.8217 26.7559 70.8632 26.5905 69.5691C26.3986 68.0605 26.7007 65.8119 29.159 63.5259C33.4634 59.5236 37.2767 58.8062 37.692 60.9958C38.0561 62.9147 34.0411 71.0984 29.2308 71.6682Z" fill="white"/>
</g>
<g opacity="0.25">
<path d="M40.1257 58.9478C39.5106 59.1702 38.8838 58.6132 39.0206 57.9726C39.1485 57.3762 39.4791 56.7021 40.2694 56.2662C41.7986 55.4248 43.0406 57.8929 40.1257 58.9468V58.9478Z" fill="white"/>
</g>
<path d="M35.3863 89C26.9025 89 20.0001 82.0976 20.0001 73.6138C20.2412 65.1663 24.4905 59.3711 34.2083 54.2134C43.0681 49.5154 49.4951 41.5482 51.8471 38.3411C53.0152 36.7498 54.6567 35.623 56.4723 35.1704C58.1866 34.7423 59.7976 34.9204 61.2589 35.6998C65.9481 38.2014 65.3901 50.1403 62.4851 60.1032C59.336 70.8957 51.6287 89.001 35.3863 89.001V89ZM58.2407 36.4054C57.7822 36.4054 57.3098 36.4654 56.8256 36.5865C55.3406 36.9575 53.9905 37.8874 53.0241 39.2041C50.6131 42.492 44.0187 50.6629 34.8923 55.5026C25.5779 60.4457 21.6858 65.6987 21.4595 73.6344C21.4595 81.2926 27.7074 87.5406 35.3863 87.5406C50.6761 87.5406 58.0488 70.0937 61.0828 59.6938C64.2043 48.9899 63.975 38.8036 60.5711 36.988C59.8438 36.5993 59.0634 36.4054 58.2398 36.4054H58.2407Z" fill="#330000"/>
<path d="M68.0068 47.4135C68.0068 47.4135 67.8424 47.4646 67.558 47.505C66.135 47.7097 61.7401 47.7057 60.4923 40.1912C60.4923 40.1912 56.6898 43.0815 55.81 47.5561C55.81 47.5561 53.8575 43.7093 56.1643 38.7968C55.9596 38.8735 50.245 41.07 45.8982 37.5303C45.8943 37.5263 45.8914 37.5263 45.8914 37.5263C45.8914 37.5263 50.0226 37.4938 52.3617 35.2491C54.7048 33.0044 57.9563 31.5411 60.9489 32.906C60.9489 32.906 62.3798 28.6469 61.9231 25.1357C61.9231 25.1357 63.5183 24.2234 65.1421 25.1357C65.4521 25.3069 65.6607 25.6395 65.7739 26.0814C66.263 27.9502 65.084 31.797 63.0479 33.9787C63.0479 33.9787 63.0519 33.9787 63.0548 33.9826C63.2084 34.0919 65.6902 35.8947 65.887 39.7051C66.0878 43.6395 66.0553 46.2414 68.0078 47.4135H68.0068Z" fill="#35DB64"/>
<g opacity="0.2">
<path d="M45.8904 37.5253C45.8904 37.5253 47.4078 38.8587 51.8097 37.4279C54.9548 36.4054 57.0814 36.1358 58.0389 36.0649C58.2476 36.0492 58.3637 36.2982 58.221 36.4497C57.6325 37.0746 56.5284 38.3136 55.8749 39.4659C54.9538 41.0916 47.4521 39.8773 45.8904 37.5253Z" fill="#330000"/>
</g>
<g opacity="0.2">
<path d="M55.81 47.5561C55.81 47.5561 55.7529 40.6202 60.0917 37.8274C60.448 37.5981 60.9085 37.9061 60.8328 38.3234L60.4932 40.1922C60.4932 40.1922 56.9161 43.1808 55.81 47.5561Z" fill="#330000"/>
</g>
<g opacity="0.2">
<path d="M68.0068 47.4134C68.0068 47.4134 67.8424 47.4646 67.558 47.5049C65.7591 46.8623 62.8462 43.6621 63.6059 40.5484C64.3834 37.3403 63.048 33.9786 63.048 33.9786C63.048 33.9786 63.0519 33.9786 63.0549 33.9826C63.2084 34.0918 65.6903 35.8947 65.8871 39.705C66.0878 43.6394 66.0553 46.2414 68.0078 47.4134H68.0068Z" fill="#330000"/>
</g>
<g opacity="0.6">
<path d="M63.5508 26.1434C63.7103 29.3328 62.5116 32.1325 61.7913 33.5044C61.5462 33.9708 61.0188 34.2247 60.508 34.0948C59.4216 33.8193 57.1444 33.7405 53.4659 35.8986C48.203 38.9867 46.0242 37.6178 45.8963 37.5303C45.8924 37.5263 45.8894 37.5263 45.8894 37.5263C45.8894 37.5263 50.0206 37.4938 52.3598 35.2491C54.7029 33.0044 57.9543 31.5411 60.9469 32.906C60.9469 32.906 62.3778 28.6469 61.9212 25.1357C61.9212 25.1357 63.5164 24.2234 65.1401 25.1357C65.4501 25.3069 65.6587 25.6395 65.7719 26.0814C64.2938 25.8039 63.5489 26.1434 63.5489 26.1434H63.5508Z" fill="white"/>
</g>
<path d="M55.5552 38.3962C56.3375 37.5027 57.237 36.741 58.3087 36.2332C58.4405 36.1692 58.5793 36.3355 58.4937 36.4526C58.0184 37.1513 57.5529 37.7939 57.1455 38.5133C56.8256 39.0615 56.5895 39.8773 55.8002 39.5505C55.3584 39.3537 55.2334 38.7554 55.5552 38.3972V38.3962Z" fill="#330000"/>
<path d="M55.809 48.2863C55.5364 48.2863 55.2835 48.1338 55.1585 47.8868C55.0808 47.7323 53.4364 44.3923 54.9292 39.9226C52.7879 40.4185 48.7688 40.8161 45.4298 38.0912C45.1917 37.8973 45.1011 37.5745 45.2035 37.2842C45.3048 36.9939 45.5784 36.7991 45.8855 36.7961C45.9238 36.7961 49.7598 36.7341 51.8589 34.7226C54.5887 32.106 57.7477 31.1042 60.4746 31.9475C60.8426 30.6151 61.5216 27.6963 61.2018 25.2291C61.1634 24.9359 61.3061 24.6485 61.5639 24.5009C61.6437 24.4557 63.539 23.3987 65.5023 24.498C65.893 24.7174 66.3948 25.2016 66.5602 26.2654C66.8928 28.3979 65.7818 31.7222 64.0783 33.896C64.9541 34.7354 66.4598 36.6082 66.6163 39.6667L66.6596 40.5484C66.8141 43.7743 66.9164 45.9048 68.3827 46.7856C68.6307 46.9342 68.7675 47.2156 68.7311 47.503C68.6947 47.7903 68.4919 48.0285 68.2154 48.1112C68.1199 48.1397 65.8575 48.7882 63.6158 47.3869C61.8946 46.3113 60.692 44.3638 60.0307 41.5876C58.9099 42.6997 57.0804 44.8784 56.5274 47.6959C56.4674 48.0019 56.2204 48.2361 55.9113 48.2785C55.8779 48.2834 55.8444 48.2853 55.811 48.2853L55.809 48.2863ZM60.4923 39.462C60.5838 39.462 60.6743 39.4787 60.7619 39.5132C60.9991 39.6077 61.1703 39.8192 61.2126 40.0721C61.7135 43.0894 62.7754 45.1294 64.3666 46.1361C65.0653 46.5789 65.768 46.7551 66.3535 46.8092C65.4265 45.3783 65.3261 43.2724 65.1992 40.6183L65.1559 39.7415C64.9748 36.2106 62.6592 34.6006 62.6356 34.5849C62.4595 34.4648 62.3433 34.2739 62.3197 34.0623C62.2961 33.8507 62.366 33.6382 62.5116 33.4827C64.3233 31.5431 65.3802 28.1913 65.1155 26.4907C65.0575 26.1188 64.9374 25.856 64.7868 25.7724C63.9799 25.3207 63.1779 25.4486 62.7055 25.5982C62.9791 29.1015 61.6978 32.969 61.6407 33.1412C61.5748 33.337 61.4291 33.4965 61.2392 33.5782C61.0493 33.6608 60.8338 33.6588 60.6458 33.5722C58.3243 32.5114 55.4154 33.3361 52.8685 35.7766C51.4682 37.1189 49.5286 37.7349 48.0495 38.0174C51.7605 39.7149 55.8513 38.1355 55.8986 38.1168C56.1771 38.0065 56.4949 38.0774 56.6996 38.2949C56.9043 38.5134 56.9564 38.8342 56.8285 39.1048C55.7135 41.4745 55.6515 43.5607 55.8523 45.0251C57.3048 41.7284 59.9176 39.713 60.0514 39.6106C60.1803 39.5122 60.3358 39.462 60.4933 39.462H60.4923Z" fill="#330000"/>
</g>
<defs>
<clipPath id="clip0_14_2560">
<rect width="50.9325" height="65" fill="white" transform="translate(20 24)"/>
</clipPath>
</defs>
</svg>
