<svg width="92" height="112" viewBox="0 0 92 112" fill="none" xmlns="http://www.w3.org/2000/svg">
<rect x="2.23334" y="1.5" width="88" height="109" rx="6.5" fill="#FFE9B6"/>
<rect x="2.23334" y="1.5" width="88" height="109" rx="6.5" stroke="white" stroke-width="3"/>
<path d="M12.7333 6H8.73334C7.62877 6 6.73334 6.89543 6.73334 8V12.5" stroke="#FA6E21" stroke-opacity="0.4" stroke-width="3" stroke-linecap="round" stroke-linejoin="bevel"/>
<path d="M19.7333 6H17.7333" stroke="#FA6E21" stroke-opacity="0.4" stroke-width="3" stroke-linecap="round" stroke-linejoin="bevel"/>
<path d="M6.73334 27L6.73334 18" stroke="#FA6E21" stroke-opacity="0.4" stroke-width="3" stroke-linecap="round" stroke-linejoin="bevel"/>
<path d="M78.7334 105L82.7334 105C83.838 105 84.7334 104.105 84.7334 103L84.7334 98" stroke="#E8C475" stroke-width="3" stroke-linecap="round" stroke-linejoin="bevel"/>
<path d="M71.7334 105L73.7334 105" stroke="#E8C475" stroke-width="3" stroke-linecap="round" stroke-linejoin="bevel"/>
<path d="M84.7334 84L84.7334 93" stroke="#E8C475" stroke-width="3" stroke-linecap="round" stroke-linejoin="bevel"/>
<g clip-path="url(#clip0_14_2406)">
<path d="M46.6485 89C63.023 89 76.2971 75.7259 76.2971 59.3514C76.2971 42.9769 63.023 29.7028 46.6485 29.7028C30.2741 29.7028 16.9999 42.9769 16.9999 59.3514C16.9999 75.7259 30.2741 89 46.6485 89Z" fill="#FFA5D5"/>
<path d="M48.3438 40.3789C48.3438 40.3789 42.9272 48.2828 37.588 61.4047C32.2476 74.5254 23.2462 79.4837 21.1871 69.4909C21.1871 69.4909 16.7631 82.383 30.5706 82.8401C44.3781 83.2983 62.9915 65.8286 68.789 50.4192C68.789 50.4192 69.6281 30.6434 48.345 40.3789H48.3438Z" fill="#EA2F53"/>
<g opacity="0.2">
<path d="M67.569 48.5898C61.7692 63.9993 43.158 81.4678 29.3494 81.0096C25.3133 80.8769 22.8341 79.6788 21.3533 78.0514C20.2614 75.7234 20.4368 73.0561 20.7415 71.3272C21.3706 74.1353 23.5023 76.9042 29.4094 77.1015C41.6218 77.5043 58.0839 62.051 63.2119 48.4225C63.2119 48.4225 63.5674 39.9981 57.4895 37.7209C61.5903 37.4254 64.2057 38.8508 65.87 40.8372C67.7444 44.4071 67.569 48.5887 67.569 48.5887V48.5898Z" fill="#330000"/>
</g>
<g opacity="0.35">
<path d="M41.9912 60.022C41.6934 59.723 41.6392 59.2591 41.795 58.8666C42.5729 56.9068 45.5472 49.6309 47.1735 48.8172C49.0548 47.8765 49.9193 49.9114 48.7755 52.5302C47.7263 54.9309 43.644 61.6794 41.9912 60.0208V60.022Z" fill="white"/>
</g>
<g opacity="0.35">
<path d="M40.6027 65.5701C39.9886 66.0306 39.0942 65.6209 39.0284 64.8568C38.966 64.1435 39.1057 63.2744 39.8432 62.515C41.2698 61.0469 43.5089 63.3875 40.6027 65.5701Z" fill="white"/>
</g>
<path d="M31.1143 83.7057C30.9216 83.7057 30.7311 83.7023 30.5407 83.6965C26.1502 83.5511 23.027 82.1753 21.2576 79.6096C18.3214 75.3495 20.2915 69.462 20.3758 69.2139C20.5016 68.8491 20.8559 68.6137 21.2403 68.6368C21.6258 68.661 21.9466 68.9403 22.024 69.3189C22.4349 71.3133 23.3582 73.7313 25.4207 73.9206C28.3697 74.1895 33.2184 69.8683 36.794 61.0826C42.1079 48.0277 47.5822 39.9761 47.6376 39.8965C47.7253 39.7684 47.8465 39.6668 47.9873 39.6022C55.172 36.3151 60.7479 35.9481 64.5602 38.5126C69.9329 42.1264 69.657 50.1191 69.6432 50.4573C69.6397 50.5484 69.6212 50.6373 69.5889 50.7227C63.8965 65.8517 45.6039 83.7057 31.1155 83.7069L31.1143 83.7057ZM21.418 72.7814C21.2668 74.5693 21.4203 76.8326 22.6715 78.6435C24.1165 80.7349 26.7827 81.8591 30.5972 81.986C44.0781 82.42 62.3349 64.9457 67.9338 50.2553C67.9442 49.2558 67.838 42.7739 63.5976 39.9288C60.3509 37.7497 55.4121 38.1295 48.9187 41.0588C48.0646 42.3503 43.1639 49.9714 38.3787 61.7278C34.8354 70.4361 29.5677 76.0143 25.2626 75.6253C24.2319 75.5307 22.6057 74.9951 21.4169 72.7814H21.418Z" fill="#330000"/>
<path d="M74.0752 52.1723C74.0752 52.1723 74.0025 52.1977 73.8744 52.2369C72.9199 52.5232 68.7764 53.4742 66.4484 49.1726C63.803 44.2927 61.924 43.0947 61.924 43.0947C59.4067 48.8171 52.4263 49.6954 52.4263 49.6954C52.4263 49.6954 52.4309 49.6908 52.4436 49.6873C52.6363 49.5419 54.5927 48.0392 55.4017 44.8894C55.8207 43.2505 55.9754 41.6531 56.0262 40.874C56.0481 40.5612 56.0515 40.3812 56.0515 40.3812C47.0108 44.1265 42.401 40.5393 42.1748 40.3558C42.1702 40.3512 42.1667 40.3512 42.1667 40.3512C42.9112 40.4158 43.5748 40.3731 44.1831 40.2484C47.9711 39.4821 49.5085 35.5532 53.6855 34.1705C58.5307 32.5697 61.0861 34.5133 61.0861 34.5133C63.4487 29.518 62.7897 25.5246 62.7897 25.5246C62.8023 25.5119 62.815 25.4992 62.8277 25.4865C64.0985 24.2157 66.2903 24.9983 66.5557 26.7445C66.5638 26.7792 66.5684 26.8126 66.5731 26.8472C67.0186 31.0035 64.2612 35.1389 64.2612 35.1389C69.4493 36.0553 70.3645 40.8359 70.2618 45.7666C70.1637 50.7019 74.0752 52.1746 74.0752 52.1746V52.1723Z" fill="#35DB64"/>
<g opacity="0.2">
<path d="M73.8744 52.237C72.9199 52.5232 68.7764 53.4742 66.4484 49.1726C63.803 44.2927 61.924 43.0947 61.924 43.0947C59.4068 48.8171 52.4263 49.6954 52.4263 49.6954C52.4263 49.6954 52.4309 49.6908 52.4436 49.6874C52.7864 49.5154 58.0448 46.7973 60.5171 40.5509C60.7548 39.9507 61.43 39.6564 62.0291 39.8953C63.0771 40.3131 64.6352 41.3646 65.8932 44.0123C67.6776 47.7749 69.9848 51.8457 73.8767 52.2393L73.8744 52.237Z" fill="#330000"/>
</g>
<g opacity="0.2">
<path d="M58.4591 37.161C58.7223 37.153 58.8423 37.4865 58.6288 37.6412C57.7885 38.2529 56.3574 39.4705 56.0238 40.8729C56.0457 40.5601 56.0492 40.38 56.0492 40.38C47.0085 44.1254 42.3987 40.5382 42.1725 40.3547C42.3525 40.432 45.2495 41.6219 51.3113 39.1566C55.3128 37.5315 57.4423 37.1933 58.4591 37.161Z" fill="#330000"/>
</g>
<g opacity="0.6">
<path d="M64.4378 27.3378C64.499 30.6041 62.972 33.9455 62.1537 35.4944C61.8894 35.9941 61.2857 36.2007 60.7687 35.971C58.2629 34.8573 55.8669 34.4014 51.3586 37.3376C46.5515 40.4666 44.3735 40.2738 44.1808 40.2484C47.9688 39.4821 49.5062 35.5532 53.6832 34.1705C58.5284 32.5697 61.0838 34.5133 61.0838 34.5133C63.4464 29.518 62.7873 25.5246 62.7873 25.5246C62.8 25.5119 62.8127 25.4992 62.8254 25.4865C64.0962 24.2157 66.288 24.9983 66.5534 26.7445C66.0491 26.6072 65.5493 26.5795 65.158 26.5887C64.7506 26.5979 64.4297 26.9327 64.4367 27.3389L64.4378 27.3378Z" fill="white"/>
</g>
<path d="M55.2286 40.013C55.8264 38.7538 57.1491 37.9886 58.4476 37.7335C58.6715 37.6862 58.8112 37.9967 58.6334 38.134C58.0286 38.6684 57.4111 39.2259 57.058 39.9461C56.991 40.0961 56.8525 40.395 56.8687 40.5035C56.5282 41.5758 54.9239 41.0956 55.2286 40.0119V40.013Z" fill="#330000"/>
<path d="M71.8995 53.3993C69.8313 53.3993 67.3082 52.559 65.6958 49.5813C64.1758 46.7754 62.9235 45.2404 62.1825 44.4729C59.1943 49.647 52.8175 50.5081 52.5312 50.5438C52.1388 50.5935 51.7672 50.3696 51.6252 50.0025C51.4832 49.6355 51.6102 49.2188 51.9334 48.9938C51.9484 48.9822 53.8158 47.6168 54.5707 44.676C54.8546 43.5703 55.0104 42.4761 55.0947 41.6647C46.301 44.8133 41.8089 41.1696 41.6138 41.0045C41.3276 40.7645 41.2307 40.3674 41.3726 40.0223C41.5146 39.6772 41.8655 39.4626 42.2371 39.496C44.9864 39.7269 46.5306 38.3291 48.3196 36.7075C49.6746 35.4795 51.2097 34.0864 53.4142 33.3581C56.9737 32.1808 59.4344 32.7902 60.674 33.3246C62.4514 29.0438 61.947 25.6978 61.9413 25.6632C61.8986 25.3989 61.9828 25.1265 62.1686 24.9326L62.2217 24.8783C63.047 24.0542 64.2531 23.7853 65.3669 24.1789C66.5049 24.5805 67.2921 25.5685 67.4202 26.7562C67.7618 29.9279 66.4103 33.0199 65.5792 34.5769C70.6888 36.1812 71.2024 41.6705 71.1182 45.784C71.0304 50.0198 74.246 51.3218 74.3822 51.3749C74.7123 51.503 74.9316 51.8238 74.9304 52.1782C74.9281 52.5325 74.7111 52.8499 74.3787 52.9757C73.7485 53.2135 72.8748 53.4004 71.8995 53.4004V53.3993ZM61.9216 42.2395C62.0821 42.2395 62.2425 42.2845 62.381 42.3734C62.5934 42.5073 64.5278 43.83 67.2009 48.7653C68.4716 51.1105 70.3518 51.6576 71.7784 51.6784C70.5976 50.5958 69.3453 48.7375 69.4077 45.7482C69.5335 39.6611 67.9003 36.6487 64.1134 35.9804C63.8295 35.9308 63.5894 35.7392 63.4763 35.4749C63.3632 35.2106 63.3909 34.9047 63.5502 34.6635C63.5756 34.6242 66.1275 30.7289 65.7201 26.9397C65.6623 26.4053 65.3184 25.9771 64.8002 25.7936C64.4135 25.6562 64.0176 25.6943 63.691 25.8894C63.7972 27.1613 63.8468 30.6804 61.8593 34.8805C61.7485 35.1136 61.5385 35.2844 61.288 35.3456C61.0399 35.4068 60.7767 35.3525 60.5724 35.199C60.4651 35.1217 58.2398 33.5647 53.9543 34.9832C52.0938 35.5984 50.7607 36.8068 49.4715 37.976C48.2238 39.1071 46.9485 40.2636 45.2414 40.8476C47.3628 41.42 50.8369 41.6139 55.7225 39.5884C55.9903 39.4764 56.2962 39.5087 56.5351 39.6738C56.774 39.8377 56.9137 40.1124 56.9056 40.4021C56.9033 40.4967 56.8375 42.7381 56.2304 45.1019C55.9118 46.3449 55.4271 47.3537 54.9262 48.1443C57.0095 47.3698 59.7968 45.8036 61.1391 42.7508C61.2395 42.5223 61.4346 42.3492 61.6735 42.2764C61.7554 42.2522 61.8397 42.2395 61.9228 42.2395H61.9216Z" fill="#330000"/>
</g>
<defs>
<clipPath id="clip0_14_2406">
<rect width="59.2972" height="65" fill="white" transform="translate(17 24)"/>
</clipPath>
</defs>
</svg>
