<svg width="30" height="31" viewBox="0 0 30 31" fill="none" xmlns="http://www.w3.org/2000/svg">
<path d="M8.37761 16.9525L10.8889 19.1188V8.1975C10.8889 7.0525 11.8101 6.125 12.9476 6.125C14.0851 6.125 15.0064 7.0525 15.0064 8.1975V13.7887L18.5214 14.355C20.7901 14.6975 21.9251 14.8675 22.7239 15.35C24.0439 16.1463 25.0001 17.3412 25.0001 19.0875C25.0001 20.3025 24.7014 21.1175 23.9751 23.3087C23.5164 24.6987 23.2851 25.3937 22.9101 25.9437C22.2939 26.848 21.3821 27.5096 20.3314 27.815C19.6939 28 18.9664 28 17.5101 28H16.2764C14.3401 28 13.3726 28 12.5114 27.6425C12.357 27.5776 12.206 27.505 12.0589 27.425C11.2401 26.9775 10.6301 26.2225 9.40886 24.71L5.45886 19.815C5.16412 19.4492 5.00257 18.994 5.00075 18.5243C4.99893 18.0545 5.15696 17.5981 5.44886 17.23C5.61947 17.0145 5.83191 16.8358 6.0734 16.7046C6.31488 16.5734 6.58042 16.4924 6.85403 16.4664C7.12764 16.4405 7.40367 16.4702 7.6655 16.5537C7.92734 16.6373 8.16956 16.7729 8.37761 16.9525Z" stroke="black" stroke-width="1.5" stroke-linecap="round" stroke-linejoin="round"/>
<path d="M17.895 8C17.895 6.67392 17.3682 5.40215 16.4306 4.46447C15.4929 3.52678 14.2211 3 12.895 3C11.5689 3 10.2972 3.52678 9.35949 4.46447C8.4218 5.40215 7.89502 6.67392 7.89502 8" stroke="black" stroke-width="1.5" stroke-linecap="round" stroke-linejoin="round"/>
</svg>
