<svg width="92" height="112" viewBox="0 0 92 112" fill="none" xmlns="http://www.w3.org/2000/svg">
<rect x="2.2334" y="1.5" width="88" height="109" rx="6.5" fill="#FFE9B6"/>
<rect x="2.2334" y="1.5" width="88" height="109" rx="6.5" stroke="white" stroke-width="3"/>
<path d="M12.7334 6H8.7334C7.62883 6 6.7334 6.89543 6.7334 8V12.5" stroke="#FA6E21" stroke-opacity="0.4" stroke-width="3" stroke-linecap="round" stroke-linejoin="bevel"/>
<path d="M19.7334 6H17.7334" stroke="#FA6E21" stroke-opacity="0.4" stroke-width="3" stroke-linecap="round" stroke-linejoin="bevel"/>
<path d="M6.7334 27L6.7334 18" stroke="#FA6E21" stroke-opacity="0.4" stroke-width="3" stroke-linecap="round" stroke-linejoin="bevel"/>
<path d="M78.7334 105L82.7334 105C83.838 105 84.7334 104.105 84.7334 103L84.7334 98" stroke="#E8C475" stroke-width="3" stroke-linecap="round" stroke-linejoin="bevel"/>
<path d="M71.7334 105L73.7334 105" stroke="#E8C475" stroke-width="3" stroke-linecap="round" stroke-linejoin="bevel"/>
<path d="M84.7334 84L84.7334 93" stroke="#E8C475" stroke-width="3" stroke-linecap="round" stroke-linejoin="bevel"/>
<g clip-path="url(#clip0_14_2435)">
<path d="M46.4804 89.0001C64.4188 89.0001 78.9608 74.4581 78.9608 56.5197C78.9608 38.5813 64.4188 24.0393 46.4804 24.0393C28.542 24.0393 14 38.5813 14 56.5197C14 74.4581 28.542 89.0001 46.4804 89.0001Z" fill="#FFE809"/>
<path d="M77.5484 52.1864C77.2993 68.7225 63.5804 82.1228 47.0418 82.0002C36.7317 81.9243 27.6443 76.6934 22.2351 68.7567C22.2288 68.7465 22.2212 68.7377 22.2149 68.7276C20.0629 65.5564 19.2031 61.6607 19.7898 57.8738C20.862 50.9562 25.5656 42.807 33.0674 36.0006C40.2873 29.4433 48.4933 25.5894 55.3288 24.9546C59.6379 24.5551 63.9104 26.037 67.1638 28.8895L67.2017 28.9224C73.6566 34.5693 77.6888 42.9107 77.5484 52.1852V52.1864Z" fill="#AA614B"/>
<path d="M33.7135 76.323C38.1479 78.4207 42.6757 80.3148 47.4034 81.6411C47.8561 81.7752 47.674 82.4744 47.2087 82.3619C44.7949 81.7853 42.4342 80.9824 40.1608 79.9911C37.8836 79.0149 35.662 77.882 33.6554 76.4191C33.6048 76.3824 33.6528 76.2926 33.7135 76.3243V76.323Z" fill="#7F3D2E"/>
<path d="M40.5237 77.4369C44.3334 79.2728 48.3631 80.6017 52.5293 81.3212C52.7316 81.3604 52.8644 81.5551 52.8265 81.7574C52.7898 81.9521 52.6065 82.0824 52.413 82.0583C50.2774 81.789 48.1684 81.2757 46.1465 80.5334C44.1285 79.7976 42.1535 78.8695 40.4605 77.5304C40.4111 77.49 40.4617 77.4065 40.5224 77.4381L40.5237 77.4369Z" fill="#7F3D2E"/>
<path d="M52.1387 76.323C54.6941 77.2928 57.3708 78.2386 60.0375 78.8202C60.2373 78.8695 60.3612 79.0718 60.3119 79.2716C60.2664 79.46 60.0817 79.5801 59.8933 79.5523C58.4911 79.3411 57.1154 78.9643 55.7916 78.4611C54.474 77.949 53.178 77.337 52.0805 76.4178C52.0337 76.3786 52.0805 76.299 52.1387 76.323Z" fill="#7F3D2E"/>
<path d="M63.7308 72.6207C65.042 73.1252 66.2976 73.7245 67.6695 73.9913C67.9414 74.0419 67.8731 74.468 67.6 74.4314C66.1636 74.2366 64.779 73.636 63.6942 72.6763C63.6676 72.6523 63.6967 72.6055 63.7308 72.6207Z" fill="#7F3D2E"/>
<path d="M41.3076 75.6364C42.9235 76.3925 45.2918 77.509 46.909 78.2069C47.3794 78.853 44.126 77.5001 43.8934 77.3926C43.6531 77.2738 40.2657 75.7147 41.3076 75.6364Z" fill="#7F3D2E"/>
<path d="M56.9725 75.6983C58.6542 76.2938 61.1198 77.1739 62.7977 77.7113C63.3288 78.3081 59.9591 77.2788 59.7176 77.1941C59.4672 77.1005 55.9332 75.869 56.9725 75.6983Z" fill="#7F3D2E"/>
<path d="M60.9061 74.2594C62.4032 74.8157 63.8434 75.5087 65.3822 75.9322C65.4391 75.9461 65.4745 76.0043 65.458 76.0612C65.4454 76.1067 65.4037 76.1371 65.3581 76.1371C63.7068 76.065 62.1617 75.367 60.7734 74.5173C60.6292 74.4263 60.7506 74.1937 60.9074 74.2594H60.9061Z" fill="#7F3D2E"/>
<path d="M49.7185 71.2513C51.3344 72.0075 53.7027 73.1239 55.3199 73.8219C55.7903 74.468 52.5369 73.1151 52.3042 73.0076C52.064 72.8888 48.6766 71.3297 49.7185 71.2513Z" fill="#7F3D2E"/>
<path d="M56.5337 80.8824C54.0466 80.2856 51.7112 79.3032 49.4492 78.1424C48.7045 77.753 47.9774 77.3307 47.258 76.8983C47.2162 76.873 47.2023 76.8186 47.2276 76.7769C47.2516 76.7364 47.3035 76.7225 47.3452 76.744C49.5744 77.8807 51.8756 78.8644 54.2717 79.57C55.0683 79.8014 55.8876 80.0138 56.6804 80.1491C57.171 80.2363 57.0269 80.9887 56.535 80.8812L56.5337 80.8824Z" fill="#7F3D2E"/>
<path d="M73.3758 39.4702C74.6074 41.626 75.4887 43.9589 76.2056 46.3309C76.9402 48.7004 77.4764 51.1344 77.7823 53.5988C77.843 54.0666 77.1312 54.1842 77.0452 53.7139C76.4332 50.09 75.5506 46.5218 74.4241 43.0232C74.051 41.8549 73.6755 40.6853 73.276 39.5195C73.2519 39.4613 73.343 39.412 73.3771 39.4714L73.3758 39.4702Z" fill="#7F3D2E"/>
<path d="M73.7273 46.3587C75.9375 50.0622 76.7859 54.4687 76.906 58.7386C76.9086 58.9447 76.7442 59.1142 76.5381 59.1167C76.3409 59.1192 76.1765 58.9675 76.16 58.774C76.0779 57.7208 75.9957 56.6688 75.8553 55.6231C75.4558 52.4798 74.6655 49.4047 73.6287 46.4105C73.6034 46.3524 73.6906 46.3018 73.7273 46.3587Z" fill="#7F3D2E"/>
<path d="M71.3363 57.7828C72.1278 58.9751 72.5931 60.3306 72.956 61.6974C73.31 63.0681 73.5326 64.4779 73.5869 65.8953C73.5945 66.1014 73.4339 66.2746 73.2278 66.2822C73.0331 66.2898 72.8687 66.1469 72.8435 65.9585C72.5615 63.2451 71.9166 60.476 71.2364 57.8308C71.2174 57.7727 71.3021 57.7297 71.3375 57.7828H71.3363Z" fill="#7F3D2E"/>
<path d="M67.4508 68.8996C68.284 70.0843 68.7278 71.5257 68.7632 72.9748C68.7683 73.2504 68.3384 73.2719 68.3181 72.9963C68.2044 71.6029 67.7492 70.2879 67.3913 68.9286C67.38 68.8945 67.4293 68.8692 67.4508 68.8983V68.8996Z" fill="#7F3D2E"/>
<path d="M72.0166 46.8721C72.9687 48.7232 73.6338 50.7311 73.888 52.7997C73.8943 52.8566 73.8526 52.9072 73.7957 52.9135C73.7463 52.9185 73.7008 52.8869 73.6869 52.8414C73.4087 51.9728 73.0383 50.7551 72.7386 49.9092L71.7511 46.9897C71.6904 46.8278 71.937 46.7178 72.0166 46.8721Z" fill="#7F3D2E"/>
<path d="M70.3551 62.4751C71.1226 64.4096 71.5891 66.4732 71.641 68.5569C71.6435 68.6783 71.4576 68.6985 71.4361 68.5784C71.2439 67.687 70.9936 66.439 70.7786 65.5678L70.0807 62.5661C70.0364 62.3992 70.2918 62.3132 70.3563 62.4751H70.3551Z" fill="#7F3D2E"/>
<path d="M69.2184 66.1722C69.9087 67.6465 70.4322 69.2586 70.3209 70.9087C70.3108 71.025 70.1313 71.0301 70.1161 70.9138C69.8657 69.3358 69.3359 67.826 68.949 66.2759C68.901 66.1128 69.1475 66.0192 69.2196 66.1722H69.2184Z" fill="#7F3D2E"/>
<path d="M66.7276 54.7482C67.6797 56.5993 68.3447 58.6072 68.5989 60.6758C68.6052 60.7327 68.5635 60.7833 68.5066 60.7896C68.4573 60.7946 68.4118 60.763 68.3979 60.7175C68.1197 59.8489 67.7492 58.6312 67.4495 57.7853L66.462 54.8658C66.4013 54.7039 66.6479 54.5939 66.7276 54.7482Z" fill="#7F3D2E"/>
<path d="M57.6945 65.4717C59.4217 66.8499 61.1805 68.1889 63.1429 69.2144C63.1935 69.2409 63.2137 69.3029 63.1872 69.3534C63.1644 69.3977 63.1113 69.4179 63.0645 69.4053C60.9163 68.6972 59.0336 67.3127 57.491 65.679C57.3708 65.5513 57.5605 65.3541 57.6933 65.4704L57.6945 65.4717Z" fill="#7F3D2E"/>
<path d="M74.5354 62.752C74.285 59.4518 73.3405 56.2124 72.1848 53.1133C72.1431 53.0121 72.3011 52.9401 72.3479 53.0437C73.7641 56.1112 74.8426 59.338 75.2801 62.7039C75.3307 63.2097 74.5518 63.2653 74.5354 62.752Z" fill="#7F3D2E"/>
<g opacity="0.2">
<path d="M77.5155 50.3202C76.7657 66.4188 63.263 79.3032 47.043 79.1831C36.733 79.1072 27.6443 73.8801 22.2339 65.9421C22.2288 65.9332 22.2199 65.9193 22.2162 65.9105C20.776 63.7926 19.9149 61.3522 19.6785 58.8335C19.7012 58.5566 19.7316 58.2847 19.772 58.0078C20.1552 58.9271 20.628 59.8134 21.1945 60.6429C21.1996 60.6568 21.2084 60.6656 21.2122 60.6745C26.6214 68.6125 35.71 73.8434 46.0214 73.9193C62.5575 74.0394 76.2802 60.6429 76.5293 44.1068C76.5293 44.031 76.5242 43.9551 76.5242 43.8843C77.073 45.9491 77.4156 48.1036 77.5143 50.3189L77.5155 50.3202Z" fill="#330000"/>
</g>
<path d="M56.1435 61.5383C68.2348 50.5631 72.8579 35.9606 66.4696 28.9228C60.0814 21.8849 45.1008 25.0767 33.0096 36.0519C20.9183 47.0271 16.2952 61.6296 22.6834 68.6675C29.0717 75.7053 44.0523 72.5135 56.1435 61.5383Z" fill="#AA614B"/>
<path d="M47.2681 82.8928C47.1897 82.8928 47.1138 82.8928 47.0354 82.8928C36.8113 82.817 27.2649 77.7201 21.4979 69.2599C19.1942 65.8649 18.2825 61.7846 18.9084 57.7385C20.0476 50.3846 25.1167 42.0116 32.468 35.3418C39.6069 28.8566 47.9091 24.7485 55.2465 24.067C59.7112 23.6535 64.2694 25.1658 67.7516 28.2194C74.6958 34.2949 78.5776 43.0244 78.4398 52.1991C78.1844 69.1714 64.2226 82.8928 47.2681 82.8928ZM56.7044 25.7828C56.2732 25.7828 55.8421 25.8031 55.4109 25.8422C48.4516 26.4884 40.5262 30.4308 33.6667 36.6594C26.6074 43.0636 21.7495 51.0447 20.671 58.0078C20.1134 61.6063 20.9239 65.2352 22.952 68.2243C28.408 76.2306 37.4094 81.0354 47.048 81.1062C47.1214 81.1062 47.1947 81.1062 47.2681 81.1062C63.2541 81.1062 76.4154 68.1725 76.6557 52.17C76.7859 43.5188 73.1254 35.2887 66.6124 29.5913C63.8003 27.1256 60.2587 25.7803 56.7032 25.7803L56.7044 25.7828Z" fill="#330000"/>
<path d="M32.3682 70.1741C29.9481 70.1741 26.5898 69.6532 24.3353 67.1686C21.8014 64.3768 21.3424 59.8817 23.0431 54.5092C24.8765 48.7182 28.9479 42.7501 34.5088 37.7026C41.606 31.2591 49.9335 27.4127 56.7854 27.4127C59.2055 27.4127 62.5638 27.9337 64.8182 30.4182C67.3521 33.2101 67.8111 37.7051 66.1105 43.0776C64.2771 48.8687 60.2056 54.8367 54.6447 59.8843C47.5475 66.3278 39.2201 70.1741 32.3682 70.1741Z" fill="white"/>
<path d="M61.8582 41.7309C60.2612 46.7835 56.6311 52.0549 51.6455 56.5815C46.1604 61.5633 39.7473 64.8761 34.4001 65.5766C33.7046 65.6702 33.0218 65.7144 32.3669 65.7144C30.8508 65.7144 28.7949 65.4464 27.6354 64.1718C26.2357 62.6242 26.1105 59.5959 27.2965 55.8545C28.8935 50.8019 32.5186 45.5305 37.5042 41.0039C43.7125 35.3709 51.0967 31.871 56.7828 31.871C58.3039 31.871 60.3598 32.139 61.5143 33.4136C62.1654 34.1267 62.5397 35.1572 62.6383 36.433C62.7547 37.9086 62.4955 39.7192 61.8582 41.7309Z" fill="#F7E9DA"/>
<path d="M61.8583 41.7309C60.2613 46.7835 56.6312 52.0549 51.6456 56.5815C46.1605 61.5633 39.7474 64.8761 34.4001 65.5766C33.419 65.4021 32.4466 65.0367 31.7866 64.3097C30.5108 62.9099 30.3995 60.1535 31.4743 56.7548C32.9284 52.1662 36.2234 47.3715 40.7551 43.2596C46.3919 38.14 53.1085 34.96 58.2724 34.96C59.6544 34.96 61.5232 35.2002 62.5765 36.3597C62.5992 36.3824 62.6169 36.409 62.6384 36.4305C62.7547 37.9061 62.4955 39.7167 61.8583 41.7284V41.7309Z" fill="#EDD5CA"/>
<path d="M32.3403 73.2555C28.1083 73.2555 24.4756 71.9658 22.0252 69.2663C15.3162 61.8757 19.9756 46.6787 32.4111 35.3899C44.8454 24.1025 60.4205 20.93 67.1295 28.3193C73.8386 35.7098 69.1792 50.9069 56.7436 62.1956C48.8511 69.3611 39.6929 73.2555 32.3403 73.2555ZM56.7714 26.0509C49.9183 26.0509 41.19 29.829 33.6085 36.7112C21.9013 47.3387 17.2975 61.4054 23.3452 68.0676C29.393 74.7285 43.8377 71.5017 55.5449 60.8756C67.2522 50.2481 71.8547 36.1815 65.8095 29.5192C63.6777 27.1712 60.5015 26.0522 56.7727 26.0522L56.7714 26.0509Z" fill="#330000"/>
</g>
<defs>
<clipPath id="clip0_14_2435">
<rect width="64.9608" height="65" fill="white" transform="translate(14 24)"/>
</clipPath>
</defs>
</svg>
