<svg width="92" height="112" viewBox="0 0 92 112" fill="none" xmlns="http://www.w3.org/2000/svg">
<rect x="2.2334" y="1.5" width="88" height="109" rx="6.5" fill="#FFE9B6"/>
<rect x="2.2334" y="1.5" width="88" height="109" rx="6.5" stroke="white" stroke-width="3"/>
<path d="M12.7334 6H8.7334C7.62883 6 6.7334 6.89543 6.7334 8V12.5" stroke="#FA6E21" stroke-opacity="0.4" stroke-width="3" stroke-linecap="round" stroke-linejoin="bevel"/>
<path d="M19.7334 6H17.7334" stroke="#FA6E21" stroke-opacity="0.4" stroke-width="3" stroke-linecap="round" stroke-linejoin="bevel"/>
<path d="M6.7334 27L6.7334 18" stroke="#FA6E21" stroke-opacity="0.4" stroke-width="3" stroke-linecap="round" stroke-linejoin="bevel"/>
<path d="M78.7334 105L82.7334 105C83.838 105 84.7334 104.105 84.7334 103L84.7334 98" stroke="#E8C475" stroke-width="3" stroke-linecap="round" stroke-linejoin="bevel"/>
<path d="M71.7334 105L73.7334 105" stroke="#E8C475" stroke-width="3" stroke-linecap="round" stroke-linejoin="bevel"/>
<path d="M84.7334 84L84.7334 93" stroke="#E8C475" stroke-width="3" stroke-linecap="round" stroke-linejoin="bevel"/>
<g clip-path="url(#clip0_14_2204)">
<path d="M46.5 90.3109C64.4493 90.3109 79 75.7602 79 57.8109C79 39.8617 64.4493 25.3109 46.5 25.3109C28.5507 25.3109 14 39.8617 14 57.8109C14 75.7602 28.5507 90.3109 46.5 90.3109Z" fill="#5EFCA1"/>
<path d="M29.7617 83.2601C29.7617 83.2601 29.3998 85.9082 28.1169 88.3335C28.1169 88.3335 28.4143 92.3796 32.4236 93.288C33.1853 93.4613 33.9684 93.0843 34.2986 92.3758C35.0312 90.7994 36.4178 87.9426 37.3439 86.8001C38.6534 85.1832 29.7617 83.2601 29.7617 83.2601Z" fill="#2EBC59"/>
<g opacity="0.2">
<path d="M33.8431 84.791C33.003 86.1574 32.0288 88.1741 31.4557 89.4077C31.1267 90.1162 30.3423 90.4919 29.5807 90.3199C29.0113 90.1908 28.5255 89.9934 28.0953 89.7594C28.4774 91.0246 29.4946 93.0311 32.1768 93.6397C32.9385 93.813 33.7216 93.436 34.0518 92.7275C34.7844 91.1511 36.171 88.2943 37.0971 87.1518C37.7474 86.3497 35.8851 85.4717 33.8443 84.791H33.8431Z" fill="#330000"/>
</g>
<path d="M32.7879 94.2671C32.5981 94.2671 32.4071 94.2469 32.2173 94.2026C28.5103 93.3613 27.3021 90.0402 27.1819 88.4018C27.1692 88.2259 27.2059 88.05 27.2882 87.8944C28.4724 85.6538 28.8292 83.1576 28.8329 83.1323C28.8684 82.8742 29.0113 82.6414 29.2252 82.4921C29.439 82.3428 29.7072 82.2884 29.9615 82.3441C32.8271 82.964 37.7246 84.2608 38.3319 85.984C38.5015 86.4673 38.4078 86.9797 38.0738 87.3921C37.4463 88.1677 36.381 90.1287 35.1513 92.773C34.7224 93.6965 33.7823 94.2684 32.7892 94.2684L32.7879 94.2671ZM29.086 88.503C29.2176 89.2874 29.8464 91.7418 32.6323 92.3732C32.9625 92.4491 33.3079 92.2833 33.4483 91.9797C34.3087 90.1287 35.4929 87.7375 36.4076 86.4787C35.6826 85.9182 33.2042 85.0414 30.5043 84.3924C30.2879 85.3805 29.859 86.9569 29.0847 88.503H29.086Z" fill="#330000"/>
<path d="M51.0546 75.4779C51.0546 75.4779 68.2004 72.2226 72.9676 42.3707C72.9676 42.3707 61.8454 41.6596 45.1222 55.2274L51.0559 75.4779H51.0546Z" fill="#35DB64"/>
<g opacity="0.2">
<path d="M69.6465 45.8044C67.6994 58.0032 63.6786 65.7639 59.6098 70.6728C54.983 74.7315 51.0508 75.4779 51.0508 75.4779L45.3309 55.9397C60.069 45.1907 69.6452 45.8044 69.6452 45.8044H69.6465Z" fill="#330000"/>
</g>
<path d="M51.0534 76.4154C50.6448 76.4154 50.2728 76.1472 50.1539 75.7411L44.2202 55.4893C44.1139 55.1262 44.2354 54.7353 44.5301 54.4974C61.3457 40.8562 72.5552 41.4028 73.0271 41.4331C73.2903 41.4496 73.5357 41.5774 73.7002 41.7836C73.8647 41.9898 73.9355 42.2568 73.8938 42.5174C69.0785 72.6743 51.9568 76.2611 51.2293 76.399C51.1698 76.4104 51.1116 76.4154 51.0534 76.4154ZM46.1976 55.564L51.6936 74.3215C55.0337 73.2057 67.6539 67.4465 71.8543 43.3385C68.7862 43.5624 59.2455 45.13 46.1976 55.564Z" fill="#330000"/>
<path d="M30.5701 83.8458C30.5701 83.8458 19.7554 77.5173 20.312 62.2845C20.87 47.0517 34.2493 38.2714 32.5767 26.6064C32.5767 26.6064 39.601 33.6724 40.493 47.3857C41.3849 61.099 30.5701 83.8445 30.5701 83.8445V83.8458Z" fill="#35DB64"/>
<g opacity="0.2">
<path d="M30.5714 83.847C30.5714 83.847 20.2766 77.8222 20.2956 63.3852C22.7968 49.6567 35.231 41.886 34.2872 30.7473C34.2872 30.7473 38.2333 35.2096 40.0729 43.5851C40.2652 44.7858 40.4107 46.0535 40.4955 47.3857C41.3874 61.1003 30.5714 83.8483 30.5714 83.8483V83.847Z" fill="#330000"/>
</g>
<path d="M30.5701 84.7846C30.4057 84.7846 30.2412 84.7416 30.0957 84.6555C29.6339 84.3861 18.8027 77.864 19.3745 62.2504C19.6605 54.4405 23.2498 48.217 26.4178 42.7249C29.6503 37.1214 32.4413 32.2808 31.6481 26.7393C31.5911 26.3395 31.7961 25.9473 32.1579 25.7664C32.5198 25.5854 32.9563 25.6576 33.2422 25.9448C33.5395 26.2433 40.5246 33.4207 41.4292 47.3251C42.3262 61.1232 31.8631 83.3107 31.4165 84.2482C31.3039 84.486 31.0964 84.6644 30.8447 84.7416C30.7548 84.7694 30.6612 84.7833 30.5689 84.7833L30.5701 84.7846ZM33.6382 29.467C33.3725 34.4278 30.7713 38.9369 28.0448 43.6636C24.8376 49.2254 21.5203 54.9756 21.2508 62.3187C20.8118 74.3026 27.7133 80.5842 30.183 82.4402C32.225 77.9172 40.3171 59.1482 39.5567 47.4478C38.9773 38.5384 35.7093 32.4756 33.6382 29.467Z" fill="#330000"/>
<path d="M31.0167 76.9329C31.0167 76.9329 26.7796 76.2636 27.0592 72.0265C27.0592 72.0265 22.7525 69.1697 25.7219 64.9883C25.7219 64.9883 24.3833 59.4278 28.022 57.6717C28.022 57.6717 27.7715 51.0245 32.2869 50.1464C32.2869 50.1464 31.7011 45.1705 36.2583 44.2089C36.2583 44.2089 36.0078 39.0242 40.4815 38.0209C40.4815 38.0209 40.732 33.2967 44.8299 31.9164C44.8299 31.9164 45.1639 27.2757 50.1399 26.5647C50.1399 26.5647 50.4739 22.5503 54.5301 21.4635C54.5301 21.4635 56.2862 17.7426 60.1323 19.1634C60.1323 19.1634 61.6379 17.2403 64.272 18.2018C66.9061 19.1634 66.1533 22.1315 66.1533 22.1315C66.1533 22.1315 69.9299 23.9154 68.0346 27.8729C68.0346 27.8729 70.7662 31.051 67.0314 34.6189C67.0314 34.6189 69.1493 39.1343 65.8054 41.4761C65.8054 41.4761 68.1472 46.0472 64.2998 49.2254C64.2998 49.2254 65.3588 53.6851 61.9023 56.361C61.9023 56.361 64.1328 61.0991 60.0627 62.9387C60.0627 62.9387 61.624 68.8484 56.6619 70.9663C56.6619 70.9663 56.524 78.5877 50.2247 78.1968C50.2247 78.1968 49.8021 80.817 44.5617 80.0933C44.5617 80.0933 40.3272 82.3251 37.206 79.7188C37.206 79.7188 33.6938 82.1163 31.0179 76.9316L31.0167 76.9329Z" fill="#FFDC48"/>
<path d="M67.2642 34.3886C70.121 31.4559 68.7002 28.8306 68.189 28.0855C68.0929 27.9463 68.0853 27.7679 68.1511 27.6123C69.4744 24.5063 67.2654 22.8021 66.4405 22.296C66.2723 22.1922 66.1824 22.0025 66.209 21.8064C66.3166 21.008 66.3659 18.9698 64.2682 18.2044C64.0278 18.1171 63.7963 18.0526 63.5762 18.0095C63.122 17.921 62.8183 18.4815 63.1321 18.8218C63.9443 19.7036 64.6592 21.1598 63.7659 23.2563C63.6989 23.4119 63.7077 23.5903 63.8039 23.7307C64.315 24.4759 65.7346 27.1011 62.8778 30.0326C62.7411 30.173 62.6943 30.3767 62.7652 30.5589C63.1498 31.5596 64.1695 34.8807 61.7151 36.8962C61.5506 37.0303 61.481 37.2492 61.5607 37.4453C61.996 38.5169 63.0941 42.0328 60.126 44.6859C60.0008 44.7972 59.9337 44.963 59.9603 45.1287C60.1172 46.0839 60.4499 49.481 57.7955 51.776C57.6374 51.9126 57.5703 52.129 57.645 52.3238C58.0435 53.3802 59.0392 56.7962 55.999 58.4245C55.8079 58.527 55.7143 58.7459 55.7535 58.9584C55.9927 60.2616 56.4608 64.6163 52.545 66.4888C52.3844 66.566 52.2718 66.7165 52.2591 66.8937C52.1617 68.2373 51.4405 73.9268 46.2014 73.8572C46.0053 73.8547 45.8193 73.9559 45.7396 74.1356C45.4499 74.7897 44.3391 76.2762 40.3221 75.7588C40.2285 75.7474 40.1336 75.7601 40.0488 75.8005C39.3479 76.132 35.8446 77.6135 33.0764 75.5665C32.9221 75.4526 32.7209 75.4298 32.5488 75.5159C32.225 75.6766 31.6328 75.9093 30.9016 75.9169C30.3209 75.922 30.2095 76.7456 30.7725 76.8835C30.7839 76.8861 30.794 76.8886 30.8042 76.8911C30.9408 76.924 31.0547 77.0151 31.1217 77.1391C33.3421 81.2396 36.0888 80.297 36.939 79.8706C37.1086 79.7859 37.3072 79.8112 37.459 79.9238C40.2285 81.9696 43.7318 80.4893 44.4327 80.1578C44.5175 80.1173 44.6123 80.1034 44.706 80.1161C48.7242 80.6323 49.8338 79.1457 50.1235 78.4928C50.2032 78.3145 50.3892 78.212 50.5853 78.2145C55.8244 78.2841 56.5455 72.5946 56.643 71.2509C56.6556 71.0738 56.7682 70.9233 56.9289 70.8461C60.8446 68.9736 60.3765 64.6189 60.1374 63.3157C60.0982 63.1032 60.1918 62.883 60.3828 62.7818C63.4231 61.1535 62.4274 57.7375 62.0288 56.6811C61.9555 56.4863 62.0213 56.2687 62.1794 56.1333C64.8338 53.8382 64.501 50.4425 64.3441 49.486C64.3176 49.3203 64.3846 49.1545 64.5099 49.0432C67.478 46.3901 66.3798 42.8742 65.9446 41.8026C65.8649 41.6065 65.9345 41.3876 66.0989 41.2535C68.5547 39.238 67.5337 35.9169 67.149 34.9162C67.0795 34.734 67.1263 34.5303 67.2616 34.3899L67.2642 34.3886Z" fill="#F4A63D"/>
<g opacity="0.6">
<path d="M67.6766 23.7219C67.6766 23.7219 67.8449 23.8016 68.0916 23.9636C67.9815 23.7687 67.8601 23.5916 67.731 23.4284C67.7045 23.6119 67.6779 23.7219 67.6779 23.7219H67.6766Z" fill="white"/>
</g>
<g opacity="0.6">
<path d="M32.5425 78.522C32.5425 78.522 32.2882 78.4803 31.9099 78.3588C32.3325 78.9104 32.7639 79.3166 33.189 79.6063C32.9701 79.2875 32.7538 78.9307 32.5425 78.522Z" fill="white"/>
</g>
<g opacity="0.6">
<path d="M27.173 66.2067C26.963 65.0022 26.5278 61.1915 29.0759 59.5278C29.3605 59.3418 29.5389 59.0331 29.5516 58.694C29.606 57.1771 30.0399 53.0678 33.1017 51.9342C33.4977 51.7874 33.7786 51.4357 33.7887 51.0118C33.8216 49.6986 34.2416 46.9696 37.0706 45.9941C37.4754 45.855 37.7715 45.507 37.8044 45.0807C37.9132 43.713 38.4888 40.7841 41.3874 39.7859C41.7492 39.6606 42.02 39.357 42.0857 38.98C42.3034 37.7211 43.0878 34.9162 45.8383 33.7067C46.1495 33.57 46.3709 33.2892 46.4418 32.9564C46.6923 31.7811 47.6272 29.0711 50.9838 28.2828C51.3722 28.1917 51.6872 27.8982 51.7808 27.5111C52.0516 26.3851 52.9284 24.0913 55.6523 23.1766C55.8927 23.0956 56.104 22.9476 56.2368 22.7312C56.7416 21.9114 58.3155 19.8618 61.109 20.5817C61.4418 20.6677 61.791 20.5842 62.0554 20.3653C62.6639 19.8605 63.9544 19.1204 65.7978 19.7935C65.8826 19.8251 65.9559 19.8631 66.0331 19.8985C65.7839 19.2267 65.2727 18.57 64.272 18.2044C62.4286 17.5313 61.1369 18.2715 60.5296 18.7763C60.2651 18.9951 59.916 19.0786 59.5832 18.9926C56.7897 18.2727 55.2158 20.3211 54.711 21.1422C54.5782 21.3572 54.3669 21.5065 54.1265 21.5875C51.4025 22.5035 50.527 24.796 50.255 25.922C50.1614 26.3092 49.8464 26.6027 49.458 26.6938C46.1014 27.482 45.1665 30.192 44.916 31.3674C44.8451 31.7001 44.6237 31.981 44.3125 32.1176C41.5607 33.3271 40.7775 36.132 40.5599 37.3909C40.4954 37.7679 40.2234 38.0716 39.8616 38.1968C36.963 39.195 36.3861 42.1252 36.2786 43.4916C36.2444 43.918 35.9496 44.2659 35.5447 44.4051C32.7158 45.3805 32.2958 48.1095 32.2629 49.4228C32.2527 49.8453 31.9719 50.1983 31.5759 50.3451C28.5129 51.4787 28.0802 55.588 28.0258 57.105C28.0131 57.444 27.8347 57.7527 27.5501 57.9387C25.026 59.5885 25.4296 63.3448 25.6422 64.5847C25.6852 64.8365 25.6422 65.0971 25.5055 65.3122C25.3524 65.5551 25.2221 65.7942 25.1159 66.027C24.563 67.2277 26.2899 68.112 26.9795 66.9848C26.9934 66.962 27.0073 66.9405 27.0212 66.9177C27.1553 66.7052 27.2173 66.4547 27.1743 66.2067H27.173Z" fill="white"/>
</g>
<g opacity="0.6">
<path d="M28.5838 73.6156C28.5838 73.6156 27.7412 73.0552 27.058 72.0696C26.9289 74.2621 28.0132 75.4868 29.081 76.1599C28.7255 75.5033 28.5155 74.6695 28.585 73.6156H28.5838Z" fill="white"/>
</g>
<path d="M31.185 66.8051C30.3804 65.3615 31.1749 63.522 32.6678 62.9324L32.2516 63.7257C31.791 61.7849 32.4844 59.3747 34.6187 58.7877L34.6605 58.7725C34.6693 58.7699 34.7086 58.7548 34.6529 58.775C34.4378 58.8509 34.2809 59.1027 34.3163 59.3367L34.3113 59.2558C34.1784 57.7249 35.3234 56.1978 36.705 55.7563C36.8644 55.6993 37.039 55.7816 37.0972 55.9397C37.1453 56.0738 37.0947 56.2193 36.9821 56.2965C36.0231 56.9582 35.5537 57.9197 35.6827 59.0179C35.7915 59.4531 35.5841 59.9402 35.1552 60.0933C33.7382 60.4855 33.4623 62.1404 33.6306 63.4359C33.7002 63.7699 33.5218 64.109 33.2144 64.2305C32.1883 64.543 31.681 65.5121 31.8543 66.5457C31.9542 66.9519 31.3811 67.1809 31.1875 66.8051H31.185Z" fill="#330000"/>
<path d="M43.7217 68.7446C44.625 68.3284 45.4259 67.4921 45.4284 66.4546C45.5018 65.8739 44.9514 64.9858 45.7105 64.6619C47.3046 63.837 48.8634 62.2517 48.1903 60.3527C48.0574 59.8403 48.3687 59.4139 48.8368 59.2153C50.1159 58.4916 50.7763 57.172 50.6991 55.6525C50.6953 55.4842 50.8294 55.3438 50.9977 55.34C51.1432 55.3362 51.2672 55.4362 51.3014 55.5715C51.5493 56.5774 51.5126 57.7489 50.98 58.7687C50.6561 59.4012 50.1791 59.968 49.587 60.3716C49.5238 60.4159 49.377 60.507 49.3163 60.545C49.5086 60.4475 49.6161 60.197 49.5579 59.9971C49.5428 59.9427 49.5541 59.987 49.5579 59.9997C50.5018 62.6224 48.5888 64.9744 46.2735 65.9524L46.6796 65.1528C47.1402 67.0986 45.9294 69.1457 43.8962 69.4379C43.4686 69.505 43.3155 68.8888 43.7229 68.7433L43.7217 68.7446Z" fill="#330000"/>
<path d="M55.5688 51.6406C56.3735 51.0561 56.9947 50.0794 56.7935 49.0609C56.7518 48.4776 56.0382 47.7135 56.7189 47.2466C58.1207 46.1257 59.3391 44.2659 58.3067 42.5351C58.0764 42.0581 58.2978 41.5786 58.7179 41.2939C59.8287 40.3362 60.2184 38.9154 59.8477 37.4427C59.8072 37.277 59.9109 37.1087 60.0779 37.072C60.2196 37.0404 60.3613 37.1138 60.4208 37.2403C61.2558 38.8585 60.956 41.17 59.5225 42.4364L59.4479 42.506C59.6174 42.3731 59.6731 42.1062 59.5782 41.9215C59.5529 41.8709 59.5731 41.9126 59.5782 41.924C61.0192 44.2924 59.5946 47.0088 57.5235 48.4043L57.7652 47.5414C58.5977 49.3595 57.812 51.6039 55.875 52.2884C55.4689 52.4377 55.1981 51.8633 55.5688 51.6419V51.6406Z" fill="#330000"/>
<path d="M43.2434 45.1768C42.6146 44.0078 43.3977 42.6641 44.5162 42.1555L44.0569 42.8564C43.9519 40.3818 45.9066 38.6965 48.3142 38.9357L47.5842 39.7859C46.9959 36.8734 48.4711 33.9205 51.5329 33.4005L50.9686 34.1115C50.9863 32.3997 51.6493 30.6424 53.1447 29.7074C53.6369 29.3747 54.1961 29.2102 54.7439 29.0786L54.1746 29.7934C54.1822 28.6295 54.5162 27.6059 55.1918 26.69C55.8193 25.8081 56.8036 25.173 57.8626 25.0098C58.2092 24.9402 58.3927 25.4387 58.0815 25.6095C56.605 26.485 55.584 28.0247 55.5815 29.7454C55.5739 30.092 55.3322 30.3805 55.0109 30.4602C53.3003 30.7221 52.3603 32.4592 52.3755 34.0685C52.3755 34.4152 52.1338 34.7049 51.8112 34.7795C49.4858 35.1629 48.5534 37.3415 48.9595 39.4885C49.0443 39.9225 48.7001 40.3387 48.2586 40.3387C46.5974 40.2084 45.4575 41.0561 45.4625 42.7729C45.4689 43.0791 45.2879 43.3461 45.0248 43.4637C44.2138 43.5637 43.542 44.1533 43.6546 45.0224C43.7178 45.2679 43.3547 45.4121 43.2447 45.173L43.2434 45.1768Z" fill="#330000"/>
<path d="M63.5142 26.4939C64.5491 27.7097 64.4024 29.8011 63.0676 30.7323C62.9626 30.812 62.812 30.7917 62.7323 30.6854C62.6792 30.6146 62.6704 30.5235 62.7032 30.4463C62.9803 29.8087 63.1929 29.2393 63.2308 28.6207C63.2941 27.9855 63.203 27.3238 63.0967 26.6875C63.0474 26.4547 63.37 26.3092 63.513 26.4939H63.5142Z" fill="#330000"/>
<path d="M48.58 71.485C49.0961 72.9956 48.1915 74.8871 46.6088 75.2628C46.481 75.2983 46.3494 75.2236 46.314 75.0958C46.29 75.0098 46.3165 74.9225 46.3747 74.863C46.8669 74.3709 47.273 73.9205 47.5362 73.3587C47.8284 72.7919 47.9866 72.1429 48.122 71.5103C48.1624 71.2762 48.5154 71.2585 48.5812 71.4837L48.58 71.485Z" fill="#330000"/>
<path d="M40.8357 81.9291C39.6389 81.9291 38.3282 81.6558 37.1085 80.8233C36.4709 81.0953 35.4043 81.3889 34.1758 81.0776C32.6968 80.7031 31.4266 79.5885 30.398 77.7603C28.6761 77.3188 26.1369 75.8069 26.1078 72.4782C25.4284 71.9114 24.1594 70.6386 23.8228 68.8269C23.5723 67.4782 23.876 66.1219 24.7237 64.7897C24.4795 63.4144 23.9898 59.0736 27.0845 57.1189C27.1338 55.4425 27.6095 50.7348 31.3127 49.4379C31.3342 47.4478 32.1844 44.5202 35.3284 43.4865C35.4575 41.4306 36.4582 38.3385 39.625 37.2846C39.8578 35.8625 40.7371 32.6313 43.9747 31.2383C44.3264 29.3861 45.7535 26.5647 49.3277 25.7588C49.6288 24.4455 50.6358 21.7317 53.8861 20.674C54.7439 19.2115 56.8074 17.2745 59.8691 18.0943C60.775 17.32 62.4653 16.5419 64.5933 17.3188C66.8821 18.155 67.3034 20.2363 67.1794 21.6545C67.8208 22.0948 68.7862 22.9349 69.2454 24.2267C69.6364 25.3261 69.5895 26.5103 69.1088 27.7527C70.0526 29.2317 70.7054 32.0278 68.1333 34.8352C68.7899 36.6697 69.1252 39.734 66.9478 41.757C67.6665 43.7067 67.9714 47.0518 65.3132 49.5809C65.4904 50.9043 65.6169 54.2229 63.0169 56.6457C63.3332 57.5933 63.7469 59.376 63.1321 61.0409C62.7614 62.0468 62.0883 62.8501 61.1255 63.4384C61.5139 65.8195 61.1445 69.7163 57.5615 71.5799C57.4413 72.8261 56.9504 75.7272 54.9615 77.5629C53.8519 78.5877 52.4666 79.1191 50.8383 79.1507C50.2791 80.1161 48.7571 81.5457 44.7173 81.0612C44.1062 81.3382 42.5956 81.9291 40.837 81.9291H40.8357ZM37.2047 78.7826C37.4185 78.7826 37.6323 78.856 37.8056 79.0002C40.3967 81.1637 44.0873 79.2836 44.1252 79.2646C44.2973 79.1748 44.4985 79.1394 44.6895 79.1659C48.0106 79.6227 49.1581 78.6156 49.3036 78.0184C49.3808 77.5414 49.8021 77.2289 50.2816 77.2631C51.6859 77.3504 52.8006 76.9999 53.6811 76.1902C55.6257 74.4013 55.7219 70.9853 55.7231 70.9498C55.7307 70.5817 55.9534 70.2502 56.2925 70.106C60.4347 68.3372 59.2075 63.3878 59.1531 63.1791C59.0392 62.7375 59.2581 62.2745 59.6743 62.086C60.5359 61.6963 61.09 61.1447 61.3659 60.4007C61.9694 58.7775 61.0597 56.7798 61.0496 56.7596C60.8648 56.3623 60.9787 55.8878 61.3254 55.6209C64.2467 53.3587 63.4205 49.5999 63.3838 49.4405C63.3041 49.0938 63.4256 48.7294 63.7001 48.503C66.9036 45.8562 65.0463 42.0619 64.9666 41.9025C64.7565 41.4863 64.8831 40.9764 65.2652 40.7095C67.9144 38.8547 66.2507 35.1743 66.1786 35.0174C66.0103 34.653 66.0913 34.2203 66.381 33.942C69.3492 31.1067 67.5336 28.7421 67.316 28.4815C67.0807 28.1993 67.0275 27.8008 67.1857 27.4693C68.6166 24.481 66.0432 23.1234 65.7447 22.9792C65.3449 22.7844 65.131 22.3339 65.2411 21.9025C65.293 21.6862 65.7105 19.7277 63.9481 19.085C61.9782 18.3651 60.88 19.7302 60.8699 19.7429C60.6194 20.0642 60.1892 20.1869 59.8059 20.0452C56.7998 18.9344 55.4334 21.7444 55.3777 21.8646C55.2601 22.1138 55.0387 22.2985 54.7717 22.3706C51.4266 23.2677 51.0863 26.5103 51.0736 26.647C51.0331 27.0796 50.7016 27.4326 50.2715 27.4934C46.1318 28.0842 45.7775 31.8291 45.7649 31.9873C45.7345 32.3605 45.484 32.6857 45.1285 32.8046C41.6746 33.9673 41.4203 38.0285 41.4177 38.069C41.395 38.4891 41.0964 38.8433 40.6865 38.9344C37.0503 39.7504 37.1882 43.985 37.1958 44.1647C37.2148 44.6227 36.901 45.0313 36.4519 45.1262C32.8044 45.8954 33.2004 49.8694 33.2194 50.0389C33.2725 50.5247 32.9448 50.9726 32.4666 51.0662C28.7988 51.7798 28.9582 57.5781 28.9607 57.6376C28.9734 58.0096 28.7659 58.3549 28.4306 58.5169C25.5081 59.9276 26.624 64.7213 26.6353 64.7694C26.6986 65.0338 26.6455 65.3109 26.4886 65.5323C25.77 66.5445 25.4941 67.5376 25.6713 68.484C25.98 70.1426 27.5653 71.2345 27.5817 71.2446C27.8613 71.4306 28.0207 71.7532 27.9992 72.0885C27.7791 75.4311 31.0293 75.984 31.1672 76.0055C31.462 76.0523 31.7176 76.237 31.8542 76.5027C32.6627 78.0678 33.5989 78.9951 34.6389 79.2583C35.7611 79.5417 36.6695 78.9508 36.6784 78.9445C36.839 78.8357 37.0238 78.7813 37.2072 78.7813L37.2047 78.7826Z" fill="#330000"/>
<path d="M66.0193 64.6847C65.8877 65.2667 61.5899 83.9838 46.1723 87.7692C35.77 90.3211 31.3685 86.747 29.5858 84.0572C28.5914 82.5554 28.9848 80.5564 30.4588 79.524C30.708 79.3507 30.9838 79.1723 31.2938 78.9939C33.5838 77.6705 37.5767 76.3434 44.3429 76.4269C57.4148 76.5913 65.7106 65.1098 66.0205 64.6822L66.0193 64.6847Z" fill="#35DB64"/>
<g opacity="0.2">
<path d="M60.9383 73.2854C57.9069 78.4183 53.0233 83.8472 45.4727 85.6956C35.3664 88.183 30.9269 84.8745 29.0507 82.2138C29.1253 81.2662 29.6137 80.3603 30.4588 79.7695C30.6979 79.6 30.9611 79.4317 31.2521 79.2622C33.1992 81.8899 37.6615 85.0048 47.5527 82.5744C53.5724 81.0967 57.8943 77.3429 60.9396 73.2842L60.9383 73.2854Z" fill="#330000"/>
</g>
<g opacity="0.6">
<path d="M66.0192 64.6847C62.0453 75.0023 50.6333 78.9952 43.8064 78.5499C36.9744 78.1045 31.6164 79.7227 31.6164 79.7227C31.6164 79.7227 31.4898 79.4557 31.2925 78.9952C33.5825 77.6718 37.5754 76.3447 44.3416 76.4282C57.4134 76.5926 65.7092 65.1111 66.0192 64.6835V64.6847Z" fill="white"/>
</g>
<path d="M39.6629 89.5784C33.2598 89.5784 30.1829 86.6571 28.8038 84.5771C27.526 82.6477 28.0156 80.0908 29.921 78.756C32.1224 77.2125 36.4228 75.3932 44.3517 75.4931C44.439 75.4931 44.5263 75.4944 44.6136 75.4944C57.1199 75.4944 65.1778 64.2431 65.2575 64.1293C65.5144 63.7636 65.9951 63.6308 66.4025 63.8092C66.8112 63.9888 67.0377 64.4316 66.9428 64.8681C66.7669 65.6778 62.4425 84.7391 46.3937 88.6801C43.819 89.3127 41.5898 89.5771 39.6616 89.5771L39.6629 89.5784ZM43.7229 77.3656C36.6771 77.3656 32.9208 78.9458 30.9989 80.292C29.9337 81.0384 29.6578 82.4643 30.3689 83.5397C31.8896 85.8335 35.9357 89.3165 45.9458 86.8583C56.3874 84.2937 61.5784 74.4481 63.7684 68.7016C60.1298 72.339 53.3471 77.4845 44.3276 77.3694C44.1239 77.3669 43.9202 77.3656 43.7216 77.3656H43.7229Z" fill="#330000"/>
</g>
<defs>
<clipPath id="clip0_14_2204">
<rect width="65" height="77.2672" fill="white" transform="translate(14 17)"/>
</clipPath>
</defs>
</svg>
