<svg width="92" height="112" viewBox="0 0 92 112" fill="none" xmlns="http://www.w3.org/2000/svg">
<rect x="2.2334" y="1.5" width="88" height="109" rx="6.5" fill="#FFE9B6"/>
<rect x="2.2334" y="1.5" width="88" height="109" rx="6.5" stroke="white" stroke-width="3"/>
<path d="M12.7334 6H8.7334C7.62883 6 6.7334 6.89543 6.7334 8V12.5" stroke="#FA6E21" stroke-opacity="0.4" stroke-width="3" stroke-linecap="round" stroke-linejoin="bevel"/>
<path d="M19.7334 6H17.7334" stroke="#FA6E21" stroke-opacity="0.4" stroke-width="3" stroke-linecap="round" stroke-linejoin="bevel"/>
<path d="M6.7334 27L6.7334 18" stroke="#FA6E21" stroke-opacity="0.4" stroke-width="3" stroke-linecap="round" stroke-linejoin="bevel"/>
<path d="M78.7334 105L82.7334 105C83.838 105 84.7334 104.105 84.7334 103L84.7334 98" stroke="#E8C475" stroke-width="3" stroke-linecap="round" stroke-linejoin="bevel"/>
<path d="M71.7334 105L73.7334 105" stroke="#E8C475" stroke-width="3" stroke-linecap="round" stroke-linejoin="bevel"/>
<path d="M84.7334 84L84.7334 93" stroke="#E8C475" stroke-width="3" stroke-linecap="round" stroke-linejoin="bevel"/>
<g clip-path="url(#clip0_14_2475)">
<path d="M47.2697 86.9491C60.5205 86.9491 71.2624 76.2072 71.2624 62.9564C71.2624 49.7057 60.5205 38.9638 47.2697 38.9638C34.019 38.9638 23.2771 49.7057 23.2771 62.9564C23.2771 76.2072 34.019 86.9491 47.2697 86.9491Z" fill="#52D2FF"/>
<path d="M58.7589 72.5393C43.2059 92.9519 22.4542 86.9734 22.2114 86.9043L22.2076 86.9005C22.2076 86.9005 23.1781 64.2575 59.7695 35.352C59.9012 35.2446 60.0329 35.1409 60.1674 35.0401C60.4616 34.8084 60.7558 34.5759 61.0537 34.3442C61.0537 34.3442 61.6291 35.2381 62.38 36.8343C65.1026 42.612 70.1565 57.5794 58.757 72.5393H58.7589Z" fill="#22C670"/>
<g opacity="0.2">
<path d="M58.9167 39.5915C58.9167 39.5915 64.431 67.5564 24.594 84.7589C24.594 84.7589 29.9029 60.5187 58.9167 39.5915Z" fill="#330000"/>
</g>
<path d="M24.5931 85.4519C24.4352 85.4519 24.2792 85.3977 24.1522 85.294C23.9514 85.1287 23.8608 84.8653 23.9159 84.6113C23.9701 84.3666 29.6161 59.8714 58.5104 39.0301C58.7019 38.8919 58.9503 38.861 59.1698 38.9479C59.3893 39.0348 59.5499 39.2272 59.5957 39.4579C59.6536 39.7511 60.9715 46.7543 57.3382 55.9785C54.0048 64.4415 45.6651 76.4145 24.8677 85.3949C24.7799 85.4332 24.6865 85.4519 24.5931 85.4519ZM58.3778 40.8421C34.5925 58.3733 27.2587 78.2171 25.6475 83.5372C44.9879 74.8407 52.8391 63.5635 56.0176 55.5517C58.7065 48.7717 58.5879 43.1434 58.3778 40.8411V40.8421Z" fill="#330000"/>
<path d="M29.6376 88.465C25.1329 88.465 22.174 87.6113 22.0096 87.5637C21.7042 87.474 21.4996 87.1873 21.5136 86.8697C21.5239 86.6269 21.8265 80.8127 26.8225 71.3195C31.3982 62.623 40.9792 49.0538 60.6315 33.7978C60.7856 33.6783 60.9808 33.6297 61.1741 33.6624C61.3656 33.6951 61.5347 33.8072 61.6402 33.9716C61.7682 34.1714 64.7934 38.9479 66.0468 46.165C67.205 52.8356 66.9771 62.8995 59.3099 72.9624C51.086 83.7548 41.3957 87.1546 34.7139 88.1063C32.8767 88.3678 31.1684 88.4659 29.6385 88.4659L29.6376 88.465ZM22.9538 86.3728C24.4641 86.7193 28.9287 87.5403 34.5794 86.724C40.9857 85.7993 50.2855 82.5154 58.2068 72.1209C70.7916 55.6049 62.7788 38.8713 60.8556 35.3791C27.466 61.5218 23.4143 82.7171 22.9538 86.3728Z" fill="#330000"/>
<path d="M59.4908 59.1182C62.9319 55.6772 62.9319 50.0981 59.4908 46.6571C56.0498 43.216 50.4707 43.216 47.0297 46.6571C43.5886 50.0981 43.5886 55.6772 47.0297 59.1182C50.4707 62.5593 56.0498 62.5593 59.4908 59.1182Z" fill="#7FEF82"/>
<g opacity="0.2">
<path d="M56.3855 44.6491C57.5568 46.0968 58.2451 47.948 58.2097 49.9551C58.1284 54.4888 54.3877 58.0987 49.8541 58.0174C48.1196 57.9866 46.5225 57.4187 45.213 56.4773C46.5645 59.5016 49.572 61.6348 53.1025 61.6974C57.9677 61.7843 61.9821 57.91 62.0689 53.0448C62.1371 49.2247 59.7629 45.9296 56.3846 44.6481L56.3855 44.6491Z" fill="#330000"/>
</g>
<g opacity="0.6">
<path d="M51.1627 50.1016C52.6836 48.8626 53.4049 47.2301 52.7738 46.4555C52.1427 45.6809 50.3982 46.0574 48.8773 47.2964C47.3564 48.5355 46.6351 50.1679 47.2662 50.9426C47.8973 51.7172 49.6419 51.3407 51.1627 50.1016Z" fill="white"/>
</g>
<path d="M53.2623 62.3923C53.2053 62.3923 53.1483 62.3923 53.0904 62.3914C47.8507 62.298 43.6645 57.9586 43.7579 52.7198C43.8513 47.4801 48.1822 43.3004 53.4295 43.3873C58.6692 43.4807 62.8554 47.82 62.762 53.0588C62.6696 58.2407 58.4236 62.3933 53.2623 62.3933V62.3923ZM53.2585 44.7696C48.8491 44.7696 45.2224 48.316 45.1439 52.7432C45.0645 57.2189 48.6408 60.925 53.1156 61.0044C57.6073 61.0903 61.2975 57.5084 61.3769 53.0327C61.4563 48.557 57.88 44.8508 53.4052 44.7714C53.3566 44.7714 53.3071 44.7705 53.2585 44.7705V44.7696Z" fill="#330000"/>
<path d="M50.9 69.9602C54.3411 66.5191 54.3411 60.9401 50.9 57.499C47.4589 54.058 41.8799 54.058 38.4388 57.499C34.9978 60.9401 34.9978 66.5191 38.4388 69.9602C41.8799 73.4013 47.4589 73.4013 50.9 69.9602Z" fill="#7FEF82"/>
<g opacity="0.2">
<path d="M47.7946 55.491C48.9658 56.9387 49.6542 58.7899 49.6187 60.7971C49.5375 65.3307 45.7968 68.9406 41.2631 68.8594C39.5287 68.8285 37.9315 68.2607 36.6221 67.3192C37.9736 70.3435 40.9811 72.4767 44.5116 72.5393C49.3768 72.6262 53.3911 68.7519 53.478 63.8867C53.5462 60.0667 51.172 56.7715 47.7937 55.4901L47.7946 55.491Z" fill="#330000"/>
</g>
<g opacity="0.6">
<path d="M42.5725 60.9436C44.0934 59.7046 44.8147 58.0721 44.1836 57.2975C43.5525 56.5229 41.808 56.8994 40.2871 58.1384C38.7662 59.3775 38.0449 61.0099 38.676 61.7846C39.3071 62.5592 41.0517 62.1827 42.5725 60.9436Z" fill="white"/>
</g>
<path d="M44.6741 73.2333C44.6162 73.2333 44.5583 73.2333 44.4994 73.2323C41.9608 73.1866 39.5931 72.1564 37.8297 70.3294C36.0673 68.5025 35.1211 66.0984 35.166 63.5607C35.2584 58.3789 39.5035 54.2263 44.6657 54.2263C44.7236 54.2263 44.7806 54.2263 44.8375 54.2273C47.3762 54.273 49.7439 55.3032 51.5073 57.1301C53.2697 58.957 54.2159 61.3612 54.171 63.8988C54.1253 66.4375 53.0951 68.8052 51.2681 70.5686C49.4833 72.2909 47.1473 73.2333 44.6732 73.2333H44.6741ZM44.6666 55.6114C40.2572 55.6114 36.6305 59.1578 36.552 63.585C36.5137 65.7528 37.3216 67.8067 38.8272 69.3665C40.3329 70.9272 42.3559 71.808 44.5247 71.8463C48.9995 71.9238 52.7065 68.3503 52.7859 63.8746C52.8251 61.7067 52.0163 59.6529 50.5107 58.0922C49.0051 56.5314 46.982 55.6507 44.8133 55.6124C44.7647 55.6124 44.7152 55.6114 44.6666 55.6114Z" fill="#330000"/>
<path d="M42.322 80.0222C45.7631 76.5811 45.7631 71.0021 42.322 67.561C38.8809 64.12 33.3019 64.12 29.8608 67.561C26.4198 71.0021 26.4198 76.5812 29.8608 80.0222C33.3019 83.4633 38.8809 83.4633 42.322 80.0222Z" fill="#7FEF82"/>
<g opacity="0.2">
<path d="M39.2177 65.552C40.3889 66.9997 41.0773 68.8509 41.0418 70.8581C40.9605 75.3917 37.2199 79.0016 32.6862 78.9204C30.9518 78.8896 29.3546 78.3217 28.0452 77.3802C29.3967 80.4045 32.4042 82.5378 35.9347 82.6004C40.7999 82.6872 44.8142 78.813 44.9011 73.9478C44.9693 70.1277 42.595 66.8325 39.2168 65.5511L39.2177 65.552Z" fill="#330000"/>
</g>
<g opacity="0.6">
<path d="M33.9954 71.0057C35.5163 69.7666 36.2376 68.1342 35.6065 67.3596C34.9754 66.5849 33.2308 66.9614 31.71 68.2005C30.1891 69.4396 29.4678 71.072 30.0989 71.8466C30.73 72.6213 32.4745 72.2448 33.9954 71.0057Z" fill="white"/>
</g>
<path d="M36.0943 83.2953C36.0373 83.2953 35.9804 83.2953 35.9225 83.2943C30.6827 83.2009 26.4965 78.8616 26.5899 73.6227C26.6357 71.0841 27.6659 68.7164 29.4928 66.953C31.3197 65.1906 33.7229 64.2482 36.2615 64.2893C41.5013 64.3827 45.6875 68.722 45.5941 73.9608C45.5016 79.1427 41.2556 83.2953 36.0943 83.2953ZM36.0887 65.6725C33.9751 65.6725 31.98 66.4776 30.4548 67.9487C28.8941 69.4543 28.0133 71.4773 27.975 73.6461C27.8947 78.1218 31.471 81.8279 35.9467 81.9073C38.1099 81.9428 40.1684 81.1377 41.7292 79.6321C43.2899 78.1265 44.1706 76.1034 44.2089 73.9347C44.2893 69.459 40.713 65.7528 36.2372 65.6734C36.1877 65.6734 36.1382 65.6725 36.0887 65.6725Z" fill="#330000"/>
<path d="M24.593 84.7588C64.431 67.5564 58.9167 39.5914 58.9167 39.5914C58.9167 39.5914 66.6259 46.1808 62.0717 59.5436C57.5175 72.9063 41.5498 89.2038 24.594 84.7588H24.593Z" fill="#22C670"/>
<g opacity="0.2">
<path d="M57.0506 71.7707C46.4095 85.7331 33.1878 86.5681 26.6759 85.9619C32.9038 83.1178 38.0268 80.0244 42.2392 76.8245C49.4058 73.1838 62.5509 64.0567 63.0469 45.9268C64.4778 52.7684 64.29 62.2691 57.0506 71.7707Z" fill="#330000"/>
</g>
<path d="M24.5939 85.4519C24.3259 85.4519 24.0709 85.295 23.9579 85.0335C23.8066 84.6823 23.9682 84.2751 24.3193 84.1228C44.6301 75.3525 52.7681 63.7448 56.0175 55.5517C59.5331 46.688 58.2498 39.7932 58.2367 39.7241C58.1638 39.3486 58.4085 38.9853 58.7831 38.9115C59.1557 38.8387 59.5219 39.0815 59.5957 39.457C59.6536 39.7503 60.9714 46.7534 57.3382 55.9776C54.0047 64.4406 45.665 76.4136 24.8676 85.394C24.7779 85.4323 24.6845 85.451 24.5939 85.451V85.4519Z" fill="#330000"/>
<path d="M70.5843 42.401C70.5843 42.401 70.4834 42.4458 70.2966 42.5121C70.2929 42.5158 70.2929 42.5121 70.2929 42.5121C68.8489 43.0492 62.3576 45.0582 58.9177 39.5924C58.9177 39.5924 53.7012 42.4635 50.2445 38.9134C50.2445 38.9134 52.8354 39.159 54.5811 36.2599C56.323 33.357 57.0954 31.3517 59.9675 31.1649C59.9675 31.1649 60.47 29.3427 60.0366 26.5547C60.0123 26.4062 60.0329 26.2567 60.0889 26.125C60.1337 26.0176 60.2028 25.9242 60.2972 25.8476C60.9519 25.3106 62.4622 24.2057 63.8856 24.1608C65.7695 24.0983 65.3996 27.0292 64.163 31.6291C64.163 31.6291 66.2935 32.5855 66.9136 36.7829C67.5301 40.9813 69.0404 41.9993 70.5852 42.401H70.5843Z" fill="#22C670"/>
<g opacity="0.2">
<path d="M50.2426 38.9124C50.2426 38.9124 53.3911 40.6721 56.8478 37.277C60.3046 33.8819 60.6137 33.7371 60.6137 33.7371C60.6137 33.7371 58.5664 36.2132 58.8541 39.0058C58.8541 39.0058 53.9776 43.1108 50.2426 38.9134V38.9124Z" fill="#330000"/>
</g>
<g opacity="0.2">
<path d="M70.5842 42.401C70.5842 42.401 70.4834 42.4458 70.2966 42.5121C70.2928 42.5158 70.2928 42.5121 70.2928 42.5121C67.0266 42.457 65.2081 39.8969 64.8411 36.8455C64.6057 34.8748 63.7315 33.6587 63.0562 32.9946C62.6144 32.5594 62.4659 31.9131 62.6854 31.3321C63.4709 29.2502 63.7016 26.4127 63.7016 26.4127C63.7016 26.4127 63.2066 27.1226 61.7859 27.1226C60.3653 27.1226 60.0889 26.125 60.0889 26.125C60.1337 26.0176 60.2028 25.9242 60.2971 25.8476C60.9519 25.3106 62.4622 24.2057 63.8856 24.1608C65.7695 24.0983 65.3996 27.0292 64.163 31.6291C64.163 31.6291 66.2934 32.5855 66.9136 36.7829C67.5301 40.9813 69.0403 41.9993 70.5852 42.401H70.5842Z" fill="#330000"/>
</g>
<g opacity="0.6">
<path d="M57.0553 34.7599C57.3018 34.0173 57.8529 32.961 59.0531 32.4464C59.2604 32.3576 59.4491 32.6098 59.3071 32.7854C58.8962 33.2926 58.2274 34.0939 57.4251 34.9747C57.2664 35.1494 56.9815 34.985 57.0562 34.7608L57.0553 34.7599Z" fill="white"/>
</g>
<path d="M58.2657 39.8287C57.6624 37.5684 58.7626 35.0998 60.4662 33.6194C60.5466 33.5503 60.668 33.5597 60.7371 33.64C60.7903 33.7016 60.7969 33.7857 60.7623 33.8539C60.3345 34.7692 59.8573 35.6827 59.6126 36.6568C59.4052 37.5535 59.3155 38.5127 59.5789 39.3888C59.8666 40.263 58.5637 40.702 58.2648 39.8287H58.2657Z" fill="#330000"/>
<path d="M65.8853 43.9897C63.4746 43.9897 60.6745 43.2509 58.6729 40.4704C57.1299 41.1316 52.8167 42.5485 49.7467 39.3963C49.544 39.188 49.4926 38.8751 49.6178 38.6136C49.7439 38.352 50.0175 38.1942 50.308 38.2231C50.3911 38.2297 52.5038 38.366 53.9852 35.9012C54.2019 35.5407 54.4036 35.1951 54.5951 34.8645C55.8737 32.6668 56.9002 30.9006 59.3865 30.5307C59.4958 29.8573 59.6331 28.4712 59.351 26.6593C59.2716 26.1493 59.4659 25.6337 59.8572 25.3115C60.6698 24.6456 62.2679 23.5192 63.8632 23.4668C64.6627 23.4388 65.1185 23.805 65.3641 24.1141C66.1702 25.1294 66.0655 27.1029 64.9616 31.3227C65.7246 31.9093 67.1135 33.3981 67.5964 36.682C68.1642 40.5441 69.4513 41.3903 70.758 41.7303C71.0447 41.805 71.2521 42.0526 71.2745 42.3477C71.2969 42.6428 71.1306 42.9193 70.8588 43.037C70.8159 43.0557 68.5967 43.9897 65.8862 43.9897H65.8853ZM58.9158 38.8994C59.1465 38.8994 59.3716 39.0152 59.5023 39.2225C62.0372 43.2453 66.3682 42.8605 68.7069 42.2804C67.3946 41.3082 66.6231 39.5905 66.2253 36.8838C65.6789 33.1655 63.8977 32.2679 63.88 32.2605C63.5699 32.1213 63.4064 31.7776 63.4952 31.4488C64.488 27.7502 64.7523 25.5721 64.2788 24.9753C64.2424 24.9286 64.1742 24.8454 63.9089 24.851C62.6798 24.8912 61.2825 25.9354 60.738 26.3819C60.724 26.394 60.7174 26.4192 60.7212 26.4463C61.1732 29.3501 60.6558 31.2704 60.6334 31.3498C60.5549 31.6338 60.3046 31.8374 60.0104 31.8561C57.8678 31.9943 57.1309 33.2608 55.7934 35.5603C55.5982 35.8965 55.3936 36.2487 55.1732 36.6148C54.1813 38.2642 52.9363 39.0114 51.936 39.3467C54.8921 40.9719 58.5403 39.0077 58.5814 38.9853C58.6869 38.9274 58.8018 38.8994 58.9148 38.8994H58.9158Z" fill="#330000"/>
</g>
<defs>
<clipPath id="clip0_14_2475">
<rect width="49.7627" height="65" fill="white" transform="translate(21.5137 23.465)"/>
</clipPath>
</defs>
</svg>
