<svg width="92" height="112" viewBox="0 0 92 112" fill="none" xmlns="http://www.w3.org/2000/svg">
<rect x="2.2334" y="1.5" width="88" height="109" rx="6.5" fill="#FFE9B6"/>
<rect x="2.2334" y="1.5" width="88" height="109" rx="6.5" stroke="white" stroke-width="3"/>
<path d="M12.7334 6H8.7334C7.62883 6 6.7334 6.89543 6.7334 8V12.5" stroke="#FA6E21" stroke-opacity="0.4" stroke-width="3" stroke-linecap="round" stroke-linejoin="bevel"/>
<path d="M19.7334 6H17.7334" stroke="#FA6E21" stroke-opacity="0.4" stroke-width="3" stroke-linecap="round" stroke-linejoin="bevel"/>
<path d="M6.7334 27L6.7334 18" stroke="#FA6E21" stroke-opacity="0.4" stroke-width="3" stroke-linecap="round" stroke-linejoin="bevel"/>
<path d="M78.7334 105L82.7334 105C83.838 105 84.7334 104.105 84.7334 103L84.7334 98" stroke="#E8C475" stroke-width="3" stroke-linecap="round" stroke-linejoin="bevel"/>
<path d="M71.7334 105L73.7334 105" stroke="#E8C475" stroke-width="3" stroke-linecap="round" stroke-linejoin="bevel"/>
<path d="M84.7334 84L84.7334 93" stroke="#E8C475" stroke-width="3" stroke-linecap="round" stroke-linejoin="bevel"/>
<g clip-path="url(#clip0_14_2179)">
<path d="M46.5 89C64.4493 89 79 74.4493 79 56.5C79 38.5507 64.4493 24 46.5 24C28.5507 24 14 38.5507 14 56.5C14 74.4493 28.5507 89 46.5 89Z" fill="#FFD553"/>
<path d="M26.3026 47.6083C27.5045 45.8307 28.4875 43.9127 29.1303 41.8657C30.9344 36.1205 36.3165 23.9785 49.3833 25.0564C66.4455 26.4633 76.3279 39.1164 69.8514 66.414C63.3762 93.7128 41.7391 89.9325 29.2138 82.9638C17.2666 76.3191 16.6606 61.8606 26.3013 47.6083H26.3026Z" fill="#EFB167"/>
<g opacity="0.35">
<path d="M31.7316 47.1643C32.1883 46.3318 32.6172 45.4828 32.9879 44.5959C33.5218 43.3168 34.3948 41.2242 35.5549 38.4218C37.5881 33.5117 39.935 31.1028 42.7133 33.3902C45.9762 36.0762 38.6458 52.8538 34.3176 54.6314C30.231 56.3115 28.3927 53.2447 31.7316 47.163V47.1643Z" fill="white"/>
</g>
<path d="M29.5959 68.3623C29.2631 67.7829 29.9754 67.1693 30.5106 67.5703C31.0875 68.003 31.8074 68.3927 32.6981 68.6508C33.9721 69.0215 35.1766 69.1936 36.1786 69.2644C36.8492 69.3125 36.9858 70.2475 36.3481 70.4625C34.2505 71.1723 31.3456 71.4064 29.5946 68.3611L29.5959 68.3623Z" fill="#DB8D4D"/>
<path d="M59.3289 51.9378C58.9962 51.3583 59.7085 50.7447 60.2436 51.1458C60.8205 51.5785 61.5404 51.9681 62.4311 52.2262C63.7052 52.5969 64.9096 52.769 65.9116 52.8399C66.5822 52.8879 66.7188 53.8229 66.0812 54.038C63.9835 54.7478 61.0786 54.9818 59.3276 51.9365L59.3289 51.9378Z" fill="#DB8D4D"/>
<path d="M61.5101 36.9707C61.7113 37.6083 60.8839 38.0537 60.4474 37.5489C59.9767 37.0036 59.3568 36.4684 58.542 36.0243C57.3768 35.3905 56.2369 34.9641 55.2728 34.6794C54.6275 34.4897 54.6946 33.5458 55.3639 33.4725C57.5653 33.2283 60.4524 33.623 61.5114 36.9719L61.5101 36.9707Z" fill="#DB8D4D"/>
<path d="M40.2715 57.8766C40.0994 57.5147 40.4891 57.1187 40.7712 57.3654C41.0761 57.6324 41.4582 57.8702 41.9339 58.0233C42.6133 58.2422 43.2586 58.3371 43.7963 58.3712C44.1556 58.394 44.2188 58.9823 43.8734 59.1266C42.7386 59.5985 41.1773 59.7794 40.2715 57.8766Z" fill="#DB8D4D"/>
<path d="M51.3002 66.2217C51.1281 65.8598 51.5178 65.4638 51.7999 65.7105C52.1048 65.9775 52.4869 66.2153 52.9626 66.3684C53.642 66.5873 54.2872 66.6822 54.8249 66.7163C55.1843 66.7391 55.2475 67.3274 54.9021 67.4717C53.7673 67.9436 52.206 68.1245 51.3002 66.2217Z" fill="#DB8D4D"/>
<path d="M50.9977 36.5253C51.1698 36.8872 50.7801 37.2832 50.498 37.0365C50.1931 36.7695 49.811 36.5317 49.3353 36.3786C48.6559 36.1597 48.0106 36.0648 47.4729 36.0306C47.1136 36.0079 47.0504 35.4196 47.3958 35.2753C48.5306 34.8034 50.0919 34.6225 50.9977 36.5253Z" fill="#DB8D4D"/>
<path d="M52.726 48.981C52.8981 49.3429 52.5084 49.7389 52.2263 49.4922C51.9214 49.2252 51.5393 48.9873 51.0636 48.8343C50.3842 48.6154 49.7389 48.5205 49.2012 48.4863C48.8419 48.4636 48.7786 47.8753 49.124 47.731C50.2589 47.2591 51.8201 47.0782 52.726 48.981Z" fill="#DB8D4D"/>
<path d="M68.2991 63.9544C61.8226 91.2558 40.1854 87.4729 27.6614 80.5068C25.1665 79.1177 23.1687 77.3907 21.6531 75.3968C19.5921 71.4228 19.105 66.6645 20.1374 61.5557C21.2102 65.6308 23.8051 69.0658 28.003 71.4C39 77.5147 57.9916 80.8345 63.6774 56.8732C66.7505 43.9076 65.6207 34.7136 61.5632 28.8039C63.7204 30.1526 65.5878 31.8694 67.1136 33.9696C70.7168 40.7105 71.4772 50.5726 68.3003 63.9544H68.2991Z" fill="#DB8D4D"/>
<g opacity="0.6">
<path d="M27.831 49.8502C29.0329 48.0726 30.0159 46.1546 30.6586 44.1076C32.4628 38.3624 37.8449 26.2204 50.9117 27.2984C58.2459 27.9031 64.248 30.5916 68.1991 35.6233C64.3656 29.1405 57.7386 25.746 49.3833 25.0564C36.3165 23.9785 30.9345 36.1205 29.1303 41.8657C28.4876 43.9127 27.5046 45.8307 26.3026 47.6083C18.542 59.081 17.4274 70.6815 23.5142 78.2384C19.2265 70.7359 20.8016 60.2412 27.831 49.8502Z" fill="white"/>
</g>
<path d="M47.0452 88.9139C38.8696 88.9139 31.4164 85.2259 28.7735 83.7558C23.7988 80.9888 20.5118 76.7707 19.2682 71.5556C17.5437 64.3251 19.7742 55.6409 25.5523 47.0997C26.772 45.2968 27.6854 43.4433 28.2661 41.5936C30.0323 35.9711 35.6346 23.0169 49.4579 24.1531C57.6905 24.8312 63.8861 27.9613 67.8727 33.4534C73.2383 40.8471 74.2011 52.006 70.7332 66.6227C68.2586 77.0529 63.4066 83.9266 56.3127 87.0541C53.2674 88.3965 50.1057 88.9127 47.0465 88.9127L47.0452 88.9139ZM27.0528 48.1156C21.5632 56.2305 19.425 64.4048 21.0306 71.1356C22.154 75.8421 25.1361 79.6591 29.654 82.173C33.1017 84.0911 45.1601 89.9906 55.5814 85.3967C62.1287 82.5109 66.6341 76.0534 68.9708 66.2052C72.3109 52.1262 71.4481 41.4646 66.4063 34.5174C62.7436 29.4706 56.9921 26.5911 49.3086 25.9585C36.7833 24.9299 31.6303 36.9289 29.9944 42.1376C29.3605 44.1556 28.3712 46.1672 27.0528 48.1169V48.1156Z" fill="#330000"/>
</g>
<defs>
<clipPath id="clip0_14_2179">
<rect width="65" height="65" fill="white" transform="translate(14 24)"/>
</clipPath>
</defs>
</svg>
