<svg width="91" height="112" viewBox="0 0 91 112" fill="none" xmlns="http://www.w3.org/2000/svg">
<rect x="1.5" y="1.5" width="88" height="109" rx="6.5" fill="#FFE9B6"/>
<rect x="1.5" y="1.5" width="88" height="109" rx="6.5" stroke="white" stroke-width="3"/>
<path d="M12 6H8C6.89543 6 6 6.89543 6 8V12.5" stroke="#FA6E21" stroke-opacity="0.4" stroke-width="3" stroke-linecap="round" stroke-linejoin="bevel"/>
<path d="M19 6H17" stroke="#FA6E21" stroke-opacity="0.4" stroke-width="3" stroke-linecap="round" stroke-linejoin="bevel"/>
<path d="M6 27L6 18" stroke="#FA6E21" stroke-opacity="0.4" stroke-width="3" stroke-linecap="round" stroke-linejoin="bevel"/>
<path d="M78 105L82 105C83.1046 105 84 104.105 84 103L84 98" stroke="#E8C475" stroke-width="3" stroke-linecap="round" stroke-linejoin="bevel"/>
<path d="M71 105L73 105" stroke="#E8C475" stroke-width="3" stroke-linecap="round" stroke-linejoin="bevel"/>
<path d="M84 84L84 93" stroke="#E8C475" stroke-width="3" stroke-linecap="round" stroke-linejoin="bevel"/>
<g clip-path="url(#clip0_14_2256)">
<path d="M45.7666 99.9172C63.7159 99.9172 78.2666 85.3665 78.2666 67.4172C78.2666 49.468 63.7159 34.9172 45.7666 34.9172C27.8173 34.9172 13.2666 49.468 13.2666 67.4172C13.2666 85.3665 27.8173 99.9172 45.7666 99.9172Z" fill="#52D2FF"/>
<path d="M49.9607 33.5635L51.942 34.8173C51.942 34.8173 51.3714 37.2022 51.2436 39.5883L50.4643 39.6529L49.6849 39.7174C49.1674 37.3844 48.2135 35.126 48.2135 35.126L49.962 33.5635H49.9607Z" fill="#24D16A"/>
<path d="M49.6823 40.5739C49.2838 40.5739 48.9333 40.2981 48.846 39.9021C48.3526 37.6766 47.4303 35.4803 47.4214 35.4588C47.2784 35.121 47.367 34.73 47.6403 34.4859L49.3888 32.9234C49.6747 32.6691 50.0947 32.6336 50.4174 32.8386L52.3986 34.0924C52.7086 34.2885 52.8592 34.6592 52.7744 35.016C52.7693 35.0387 52.2203 37.3566 52.0975 39.6326C52.0748 40.0603 51.7395 40.4056 51.3119 40.4411L49.7531 40.5701C49.7291 40.5727 49.7051 40.5727 49.6823 40.5727V40.5739ZM49.2306 35.3652C49.5064 36.08 49.9796 37.3806 50.3453 38.8027L50.4401 38.7951C50.5679 37.3313 50.821 35.9712 50.9753 35.2209L50.0492 34.6339L49.2319 35.3652H49.2306Z" fill="#330000"/>
<path d="M48.1085 11.123C51.0538 10.8801 51.9559 14.6845 52.2304 16.8251C52.3038 17.4021 52.8896 17.7867 53.4349 17.5817C54.07 17.3426 54.8873 17.2756 55.6211 17.9613C57.295 19.5276 55.9146 21.8201 54.6975 23.4787C54.6849 23.4952 54.6735 23.5129 54.6608 23.5293C53.7689 24.7907 54.4318 26.5506 55.9083 27.0073C57.0558 27.3629 58.4893 28.1283 58.5614 29.7502C58.6335 31.3393 57.1975 32.0516 55.9893 32.3704C55.2036 32.5779 54.6039 33.1865 54.3939 33.9709C53.8296 36.0875 50.0771 34.9717 50.0771 34.9717C50.0771 34.9717 46.5586 36.6885 45.654 34.6933C45.3187 33.9532 44.6267 33.4509 43.8182 33.375C42.5746 33.2586 41.0424 32.7905 40.8514 31.2115C40.6578 29.601 41.9458 28.6091 43.0186 28.0714C44.4002 27.3793 44.7659 25.5347 43.6778 24.4365C43.6626 24.4213 43.6487 24.4074 43.6335 24.3922C42.1608 22.9562 40.4237 20.9205 41.818 19.1012C42.4291 18.3041 43.2476 18.2358 43.9131 18.3674C44.4837 18.48 44.9986 18.0056 44.9771 17.4236C44.8962 15.2664 45.1619 11.3659 48.1085 11.123Z" fill="#24D16A"/>
<g opacity="0.6">
<path d="M57.6353 28.4484C57.8428 28.5129 58.0592 28.5901 58.2742 28.6837C57.8327 27.8576 56.9572 27.373 56.1576 27.0909C56.4094 27.7108 56.9281 28.2295 57.6353 28.4484Z" fill="white"/>
</g>
<g opacity="0.6">
<path d="M42.5796 32.6526C42.386 31.042 43.674 30.0501 44.7469 29.5124C46.1285 28.8204 46.4941 26.9757 45.4073 25.8776C45.3921 25.8624 45.3782 25.8485 45.363 25.8333C43.8903 24.396 42.1532 22.3616 43.5475 20.5423C44.1586 19.7452 44.9771 19.6769 45.6426 19.8085C46.2132 19.9211 46.7281 19.4466 46.7066 18.8647C46.6257 16.7075 46.8914 12.807 49.838 12.5641C50.2454 12.5299 50.6097 12.5805 50.9425 12.6868C50.3162 11.7025 49.4141 11.0155 48.1097 11.123C45.1644 11.3659 44.8987 15.2678 44.9784 17.4236C44.9999 18.0043 44.485 18.48 43.9144 18.3674C43.2489 18.2359 42.4303 18.3029 41.8192 19.1013C40.425 20.9206 42.1634 22.955 43.6348 24.3922C43.65 24.4074 43.6651 24.4213 43.6791 24.4365C44.7659 25.5347 44.4002 27.3793 43.0186 28.0714C41.9445 28.6091 40.6565 29.601 40.8514 31.2116C40.9868 32.3313 41.7977 32.8917 42.7011 33.1638C42.6441 33.0069 42.6011 32.8386 42.5796 32.6526Z" fill="white"/>
</g>
<g opacity="0.6">
<path d="M45.7477 34.8489C46.045 35.3537 46.5308 35.5827 47.0787 35.6422C46.7459 35.2285 46.2778 34.9476 45.7477 34.8489Z" fill="white"/>
</g>
<path d="M49.2218 35.0425L48.4475 17.0984C48.4361 16.9137 48.7321 16.8795 48.7524 17.0731L50.931 34.9008C51.0487 36.0609 49.3002 36.214 49.223 35.0412L49.2218 35.0425Z" fill="#330000"/>
<path d="M48.8663 24.167C49.9961 22.7411 51.3372 21.2937 52.906 20.4625C51.8458 21.8175 50.3871 23.0308 49.5356 24.5668C49.2914 25.0931 48.5159 24.6326 48.8663 24.1657V24.167Z" fill="#330000"/>
<path d="M48.9043 24.6199C47.7897 23.2826 46.2904 22.2768 44.9228 21.1887C44.8734 21.1533 44.9202 21.0698 44.9772 21.0976C46.6548 21.8428 48.1591 22.8474 49.4976 24.1163C49.6583 24.2618 49.6697 24.5111 49.5242 24.6718C49.3559 24.8628 49.0384 24.835 48.903 24.6212L48.9043 24.6199Z" fill="#330000"/>
<path d="M49.3217 29.3479C50.091 28.9493 50.8475 28.628 51.6497 28.3319C52.4366 28.0409 53.2413 27.8018 54.0548 27.626C54.1319 27.6095 54.2091 27.6589 54.2256 27.736C54.2407 27.8044 54.2015 27.8727 54.1395 27.8992C53.0135 28.3737 51.9558 28.9759 50.9487 29.6591C50.3819 29.9425 49.7392 30.9306 49.1269 30.2651C48.889 29.9729 48.9865 29.5199 49.3217 29.3491V29.3479Z" fill="#330000"/>
<path d="M49.4988 32.7968C48.1995 31.7619 46.5294 31.1533 44.8834 30.856C44.8012 30.8421 44.7455 30.7649 44.7595 30.6827C44.7721 30.6093 44.8366 30.5562 44.9087 30.5562C46.2524 30.5574 47.6276 30.7687 48.908 31.228C49.452 31.4899 50.8564 31.7517 50.4313 32.6526C50.2428 32.9828 49.7784 33.0536 49.4988 32.7968Z" fill="#330000"/>
<path d="M47.4062 36.514C47.0153 36.514 46.6269 36.4621 46.2676 36.3318C45.6337 36.1041 45.1504 35.6587 44.8733 35.0464C44.662 34.5808 44.2382 34.2746 43.7385 34.2278C40.7577 33.9495 40.1175 32.2819 40.0011 31.3141C39.8037 29.6795 40.74 28.2561 42.6365 27.306C43.0616 27.0922 43.3627 26.686 43.4399 26.2167C43.512 25.7776 43.3779 25.3487 43.0717 25.04C41.9697 23.9646 39.1345 21.1977 41.1398 18.5813C41.8407 17.6653 42.8832 17.2921 44.0813 17.5287C44.0902 17.5287 44.1243 17.5021 44.1218 17.4578C43.9586 13.1094 45.3857 10.4892 48.0388 10.2716C50.6856 10.0489 52.5289 12.4021 53.0806 16.7189C53.0869 16.7632 53.1223 16.7822 53.1312 16.7835C54.2736 16.3533 55.3655 16.5507 56.2068 17.3389C58.6145 19.5922 56.2701 22.7855 55.3883 23.9887C55.1099 24.3834 55.0467 24.8275 55.1896 25.2488C55.3427 25.6979 55.7045 26.0509 56.16 26.1914C58.1856 26.8176 59.3419 28.0689 59.4166 29.7136C59.4609 30.6891 59.1016 32.4388 56.2068 33.2017C55.721 33.3295 55.3528 33.7015 55.2212 34.1949C55.0479 34.8452 54.6443 35.3627 54.056 35.6929C52.7807 36.4052 50.9133 36.0661 50.1504 35.8814C49.6178 36.1079 48.5044 36.5165 47.4062 36.5178V36.514ZM43.3918 19.1721C42.9148 19.1721 42.6668 19.4049 42.4986 19.6225C41.7407 20.6106 42.2595 21.8543 44.2331 23.7787C44.2382 23.7837 44.2863 23.8318 44.2913 23.8368C44.9847 24.5378 45.2921 25.5069 45.1289 26.495C44.9632 27.5033 44.3179 28.3801 43.4019 28.8381C42.1658 29.4581 41.594 30.221 41.7015 31.1091C41.7989 31.9188 42.5378 32.3945 43.8966 32.5211C45.0011 32.6248 45.9728 33.3207 46.4333 34.3391C46.5206 34.5327 46.6446 34.6466 46.8457 34.7199C47.5884 34.9882 48.9915 34.5454 49.7013 34.2012C49.8936 34.1076 50.115 34.0899 50.3212 34.1506C51.0752 34.372 52.5315 34.582 53.221 34.1936C53.407 34.0886 53.5107 33.9558 53.5651 33.7508C53.8536 32.6716 54.6975 31.8252 55.7691 31.5418C57.0887 31.1939 57.7402 30.6043 57.7035 29.7895C57.6631 28.895 56.9735 28.2359 55.6527 27.8272C54.6747 27.5249 53.8941 26.767 53.5651 25.7979C53.2438 24.8503 53.3867 23.8432 53.9586 23.0347C53.9611 23.0322 53.9991 22.9778 54.0016 22.9753C55.6337 20.7498 55.9424 19.4391 55.0327 18.5876C54.786 18.3573 54.4166 18.1258 53.7334 18.3839C53.2374 18.5712 52.6909 18.5193 52.2316 18.2435C51.7584 17.9588 51.4472 17.4818 51.3776 16.934C51.1309 15.0046 50.3845 11.7961 48.1767 11.977C45.9664 12.1592 45.759 15.4474 45.8323 17.392C45.8526 17.9449 45.6236 18.4662 45.2035 18.8242C44.7961 19.1721 44.2648 19.3113 43.7448 19.2088C43.6145 19.1822 43.4968 19.1709 43.3905 19.1709L43.3918 19.1721Z" fill="#330000"/>
<path d="M57.4227 35.7208L58.0591 37.9778C58.0591 37.9778 56.0411 39.3708 54.3521 41.0611L53.7296 40.5879L53.1072 40.1147C54.28 38.0335 55.0796 35.7157 55.0796 35.7157L57.424 35.722L57.4227 35.7208Z" fill="#24D16A"/>
<path d="M54.3521 41.9176C54.1699 41.9176 53.9877 41.8607 53.8346 41.743L52.5884 40.7967C52.2468 40.5373 52.1494 40.0667 52.3607 39.6934C53.4791 37.7084 54.261 35.4576 54.2686 35.4348C54.3875 35.0894 54.7139 34.8566 55.0783 34.8566H55.0808L57.4252 34.863C57.8086 34.863 58.1439 35.1185 58.2476 35.488L58.884 37.745C58.9827 38.098 58.8473 38.4751 58.5462 38.6825C58.5272 38.6965 56.57 40.054 54.9581 41.6658C54.7924 41.8316 54.5722 41.9163 54.3521 41.9163V41.9176ZM54.2091 39.8756L54.285 39.9325C55.3579 38.9293 56.4536 38.0854 57.071 37.6312L56.7737 36.5747L55.6767 36.5722C55.4047 37.2883 54.8873 38.5712 54.2091 39.8743V39.8756Z" fill="#330000"/>
<path d="M71.0349 17.7842C73.3894 19.5707 71.5194 23.0044 70.2922 24.7807C69.962 25.2589 70.1404 25.9371 70.6832 26.1483C71.3157 26.3951 71.9698 26.891 72.0559 27.8918C72.2545 30.1754 69.6963 30.9586 67.6834 31.3799C67.6632 31.3837 67.6429 31.3887 67.6227 31.3938C66.1158 31.7367 65.4339 33.4889 66.2272 34.8148C66.8446 35.846 67.3987 37.373 66.3702 38.6281C65.3618 39.8579 63.8183 39.4302 62.7062 38.8596C61.9838 38.4889 61.1298 38.5408 60.4491 38.9849C58.6146 40.183 56.5688 36.8455 56.5688 36.8455C56.5688 36.8455 52.8036 35.7726 53.464 33.6838C53.7082 32.9095 53.5298 32.0732 52.9782 31.476C52.1305 30.5588 51.3031 29.1861 52.2153 27.8842C53.1477 26.5557 54.7672 26.6785 55.9261 26.996C57.4165 27.4034 58.9208 26.2749 58.8461 24.7313C58.8461 24.7111 58.8436 24.6896 58.8423 24.6694C58.7069 22.6172 58.7727 19.9414 61.0248 19.5188C62.0129 19.3341 62.6657 19.83 63.0731 20.3728C63.4223 20.8384 64.1232 20.8283 64.4952 20.3816C65.8755 18.723 68.6791 15.9978 71.0336 17.7842H71.0349Z" fill="#24D16A"/>
<g opacity="0.6">
<path d="M66.5498 37.0403C66.6611 37.2263 66.7699 37.4287 66.8686 37.6426C67.0926 36.7329 66.7636 35.7865 66.3575 35.0426C66.131 35.6714 66.1702 36.4039 66.5498 37.0403Z" fill="white"/>
</g>
<g opacity="0.6">
<path d="M52.5391 30.1122C53.4716 28.7837 55.091 28.9065 56.2499 29.224C57.7403 29.6314 59.2446 28.5029 59.17 26.9593C59.17 26.9391 59.1674 26.9176 59.1662 26.8974C59.0308 24.8452 59.0966 22.1694 61.3486 21.7468C62.3367 21.5621 62.9895 22.058 63.3969 22.6008C63.7461 23.0664 64.447 23.0563 64.819 22.6097C66.1993 20.951 69.003 18.2258 71.3575 20.0122C71.6826 20.2589 71.9205 20.5398 72.0976 20.8409C72.2886 19.6909 72.0761 18.5763 71.0336 17.7855C68.6791 15.9991 65.8754 18.7243 64.4951 20.3829C64.1231 20.8295 63.4222 20.8397 63.073 20.3741C62.6657 19.8313 62.0116 19.3354 61.0247 19.5201C58.7727 19.9426 58.7056 22.6172 58.8423 24.6706C58.8435 24.6921 58.8448 24.7124 58.8461 24.7326C58.922 26.2761 57.4177 27.4047 55.926 26.9973C54.7671 26.681 53.1464 26.5583 52.2153 27.8855C51.5675 28.809 51.7965 29.7668 52.2874 30.574C52.3494 30.4196 52.4316 30.2653 52.5391 30.1122Z" fill="white"/>
</g>
<g opacity="0.6">
<path d="M53.4285 33.8622C53.3134 34.4366 53.5209 34.9313 53.8891 35.3412C53.9182 34.8111 53.7562 34.2898 53.4285 33.8622Z" fill="white"/>
</g>
<path d="M55.8855 36.3279L67.2962 22.4578C67.4113 22.3123 67.6543 22.4856 67.5391 22.6425L57.2507 37.3641C56.5624 38.3054 55.1593 37.2528 55.8855 36.3279Z" fill="#330000"/>
<path d="M62.8858 27.9967C64.6785 27.6906 66.6434 27.5096 68.3653 27.9385C66.6712 28.2397 64.7747 28.1675 63.116 28.7419C62.5771 28.9659 62.3127 28.1169 62.8858 27.9967Z" fill="#330000"/>
<path d="M62.6113 28.3586C62.6758 26.6189 62.2305 24.8692 61.942 23.146C61.9294 23.0865 62.0192 23.0562 62.0432 23.1144C62.7935 24.7882 63.2426 26.5418 63.3906 28.3813C63.4121 28.5977 63.2553 28.79 63.0402 28.8128C62.7872 28.8419 62.5695 28.6103 62.6113 28.3598V28.3586Z" fill="#330000"/>
<path d="M59.7646 32.1566C61.3992 32.5918 62.9718 33.2067 64.4369 34.0379C64.5052 34.0772 64.5293 34.1645 64.4901 34.2341C64.4559 34.2948 64.3813 34.3201 64.3167 34.2973C62.7897 33.7761 61.1766 33.4699 59.5761 33.3522C58.7057 33.2725 58.9081 31.9656 59.7633 32.1566H59.7646Z" fill="#330000"/>
<path d="M57.5922 34.8414C57.3177 33.203 56.4801 31.6342 55.4541 30.3146C55.4022 30.2488 55.4123 30.1539 55.4781 30.102C55.5363 30.0552 55.6198 30.0603 55.6742 30.1071C57.0267 31.3432 58.1653 32.8247 58.7777 34.5909C59.0193 35.4373 57.7149 35.7144 57.5935 34.8401L57.5922 34.8414Z" fill="#330000"/>
<path d="M64.6798 40.2804C64.0308 40.2804 63.2476 40.0995 62.3152 39.6213C61.8686 39.3923 61.3461 39.4226 60.9184 39.7022C60.3554 40.0704 59.7102 40.1881 59.0523 40.0388C57.6277 39.7187 56.4637 38.2182 56.0196 37.5704C55.2757 37.3161 53.5184 36.6 52.8263 35.3146C52.5062 34.7212 52.4455 34.0671 52.6479 33.4257C52.8023 32.9386 52.6909 32.4274 52.3493 32.058C50.3175 29.8604 50.9538 28.1916 51.5143 27.3933C52.4607 26.0459 54.1079 25.6119 56.1537 26.1699C56.6143 26.2964 57.109 26.1939 57.4784 25.8966C57.8251 25.6182 58.0123 25.2096 57.9908 24.7744C57.8896 23.2384 57.6277 19.286 60.8678 18.6774C62.0014 18.4636 63.0287 18.8837 63.76 19.8591C63.7676 19.8642 63.8094 19.868 63.8372 19.8338C66.6206 16.4887 69.4344 15.493 71.5535 17.1023C73.674 18.7116 73.4716 21.6873 70.9981 25.269C70.9728 25.3057 70.9867 25.3437 70.9931 25.35C72.1305 25.7928 72.8111 26.6683 72.9111 27.8171C73.197 31.1015 69.3192 31.9138 67.8605 32.2187C67.3898 32.325 67.0457 32.6147 66.8711 33.0246C66.6851 33.4611 66.7193 33.9659 66.9635 34.3746C68.0528 36.1939 68.0768 37.8981 67.033 39.1721C66.6307 39.6618 65.8843 40.2817 64.6811 40.2817L64.6798 40.2804ZM61.6902 37.7589C62.1722 37.7589 62.6555 37.8715 63.0958 38.0967C64.3116 38.7192 65.1884 38.7141 65.7059 38.0841C66.2727 37.392 66.2006 36.4393 65.4908 35.2539C64.9645 34.3758 64.8911 33.2903 65.2922 32.3503C65.6856 31.4305 66.465 30.7764 67.4316 30.5562C67.4366 30.5562 67.5024 30.5411 67.5075 30.5398C70.2049 29.9755 71.3106 29.205 71.2018 27.9651C71.1727 27.6299 71.0513 27.2111 70.3706 26.9467C69.8772 26.7544 69.5039 26.3508 69.3458 25.8396C69.1839 25.3121 69.2712 24.7491 69.5849 24.2949C70.6907 22.6944 72.281 19.8085 70.5148 18.4674C68.7486 17.1289 66.3967 19.4353 65.153 20.9307C64.8 21.3546 64.2939 21.5975 63.7297 21.5772C63.1945 21.5646 62.7049 21.3128 62.3873 20.889C61.9495 20.3045 61.5118 20.3007 61.1816 20.3627C59.9581 20.5917 59.5141 21.8632 59.6963 24.6137C59.6963 24.6149 59.7001 24.6795 59.7001 24.682C59.7494 25.6802 59.3294 26.6076 58.5487 27.2339C57.7517 27.8728 56.6851 28.0942 55.6995 27.8247C54.366 27.4603 53.4298 27.6476 52.9161 28.3789C52.448 29.0469 52.6796 29.8933 53.6069 30.8953C54.3585 31.7088 54.6178 32.8766 54.2813 33.9419C54.2168 34.1443 54.2332 34.3113 54.3344 34.4998C54.7076 35.1969 56.0487 35.8029 56.8053 36.0218C57.0115 36.0813 57.1874 36.2154 57.3 36.3976C57.7137 37.0669 58.6575 38.1941 59.4293 38.3662C59.6381 38.413 59.8025 38.3827 59.9809 38.2663C60.4984 37.9285 61.0943 37.7577 61.6914 37.7577L61.6902 37.7589Z" fill="#330000"/>
<path d="M54.3939 33.3069L55.9513 35.2679C55.9513 35.2679 54.5381 37.4731 53.5715 39.834L52.763 39.6252L51.9546 39.4165C52.2519 36.881 52.0824 34.2684 52.0824 34.2684L54.3951 33.3069H54.3939Z" fill="#24D16A"/>
<path d="M53.5715 40.7486C53.4956 40.7486 53.4185 40.7385 53.3425 40.7195L51.7244 40.3008C51.2816 40.1869 50.9906 39.7618 51.045 39.3076C51.3284 36.8898 51.1702 34.3506 51.169 34.3253C51.1437 33.9344 51.3701 33.5712 51.7307 33.4207L54.0435 32.4592C54.4217 32.301 54.857 32.4136 55.1113 32.735L56.6687 34.696C56.9116 35.0022 56.9331 35.4298 56.7231 35.7587C56.7092 35.7803 55.3415 37.9247 54.4192 40.178C54.2762 40.5285 53.9359 40.7461 53.5728 40.7461L53.5715 40.7486ZM52.9427 38.7256L53.0414 38.7509C53.6841 37.32 54.4167 36.0358 54.8367 35.3336L54.108 34.4164L53.0263 34.8655C53.0541 35.6841 53.0731 37.1606 52.9427 38.7243V38.7256Z" fill="#330000"/>
<path d="M60.406 10.0199C63.4627 10.8094 63.0363 14.9642 62.5606 17.2188C62.4328 17.8273 62.8883 18.4207 63.5095 18.4042C64.2344 18.3865 65.0834 18.6054 65.5819 19.5556C66.7193 21.7228 64.5229 23.551 62.7124 24.7959C62.6934 24.8086 62.6757 24.8212 62.658 24.8339C61.3144 25.7929 61.365 27.8007 62.6947 28.78C63.7284 29.5416 64.9037 30.8169 64.4078 32.4781C63.9219 34.1052 62.2241 34.3215 60.8931 34.2178C60.0277 34.1507 59.2091 34.5543 58.722 35.2729C57.4088 37.2099 54.0168 34.7656 54.0168 34.7656C54.0168 34.7656 49.8645 35.2615 49.6532 32.9311C49.5748 32.0669 49.0535 31.3167 48.264 30.9574C47.0495 30.4032 45.6692 29.3923 46.031 27.7337C46.4017 26.0409 48.0477 25.4931 49.3205 25.3273C50.9576 25.1135 51.9736 23.3815 51.2625 21.8923C51.2524 21.8721 51.2435 21.8519 51.2334 21.8329C50.2529 19.8668 49.2142 17.2036 51.26 15.8587C52.157 15.2691 53.0059 15.488 53.6309 15.8549C54.1674 16.1699 54.8531 15.8701 55.0353 15.2767C55.7109 13.0728 57.3493 9.23167 60.406 10.0199Z" fill="#24D16A"/>
<g opacity="0.6">
<path d="M63.9321 30.8422C64.1181 30.9788 64.3091 31.1344 64.4939 31.304C64.3382 30.3158 63.6259 29.5188 62.9187 28.9532C62.9554 29.6668 63.2957 30.3728 63.9321 30.8422Z" fill="white"/>
</g>
<g opacity="0.6">
<path d="M47.2696 29.7959C47.6403 28.1031 49.2863 27.5553 50.5591 27.3896C52.1962 27.1757 53.2122 25.4437 52.5012 23.9546C52.491 23.9343 52.4822 23.9141 52.4721 23.8951C51.4915 21.929 50.4528 19.2658 52.4986 17.9209C53.3956 17.3314 54.2446 17.5502 54.8696 17.9171C55.406 18.2322 56.0917 17.9323 56.2739 17.339C56.9495 15.135 58.5879 11.2939 61.6446 12.0821C62.0672 12.1909 62.4177 12.3693 62.7162 12.5933C62.4303 11.3812 61.761 10.3716 60.4085 10.0211C57.3519 9.23166 55.7135 13.074 55.0378 15.278C54.8557 15.8726 54.1687 16.1712 53.6335 15.8562C53.0085 15.4893 52.1596 15.2704 51.2625 15.86C49.218 17.2061 50.2555 19.8681 51.236 21.8341C51.2461 21.8544 51.2562 21.8746 51.2651 21.8936C51.9761 23.3827 50.9602 25.116 49.323 25.3286C48.0502 25.4943 46.4042 26.0421 46.0335 27.735C45.7767 28.9128 46.3979 29.7618 47.214 30.3539C47.2114 30.1768 47.2279 29.9908 47.2709 29.7947L47.2696 29.7959Z" fill="white"/>
</g>
<g opacity="0.6">
<path d="M49.6925 33.1233C49.8152 33.7369 50.2239 34.1392 50.7565 34.391C50.5667 33.8571 50.1923 33.4092 49.6925 33.1233Z" fill="white"/>
</g>
<path d="M53.1313 34.539L58.6513 16.1661C58.7044 15.975 59.0156 16.0459 58.9676 16.247L54.9038 34.9958C54.6141 36.2078 52.7973 35.7486 53.1313 34.5378V34.539Z" fill="#330000"/>
<path d="M56.5914 23.4434C58.2324 22.4022 60.0935 21.4128 61.9659 21.1256C60.7931 21.891 59.4014 22.4566 58.2223 23.2663C57.8376 23.5257 57.4163 23.7812 57.1165 24.0912C56.68 24.5188 56.0803 23.7838 56.5914 23.4434Z" fill="#330000"/>
<path d="M56.4701 23.9128C55.8666 22.1403 54.4989 20.5879 53.6753 18.9735C55.1707 20.1843 56.317 21.891 57.2469 23.6117C57.3582 23.8154 57.2823 24.0709 57.0786 24.181C56.842 24.3138 56.5321 24.1759 56.4701 23.9115V23.9128Z" fill="#330000"/>
<path d="M55.2315 28.8293C57.0217 28.5839 58.8233 28.5408 60.611 28.7547C60.6945 28.7648 60.7553 28.842 60.7439 28.9255C60.735 29.0001 60.6718 29.0545 60.5997 29.0596C58.8803 29.1747 57.1647 29.5403 55.5389 30.0844C54.6495 30.3652 54.3092 28.9938 55.2302 28.8293H55.2315Z" fill="#330000"/>
<path d="M54.199 32.3705C53.2526 30.87 51.7812 29.6694 50.225 28.7926C50.1466 28.7496 50.1175 28.6522 50.1605 28.5737C50.1985 28.5041 50.282 28.4738 50.3554 28.4991C51.7104 28.9722 53.0224 29.6681 54.1534 30.5816C54.6102 31.037 55.9348 31.7936 55.1896 32.5527C54.8834 32.8197 54.3913 32.7286 54.199 32.3718V32.3705Z" fill="#330000"/>
<path d="M57.2342 36.9353C55.8463 36.9353 54.3964 36.1092 53.774 35.7081C52.9364 35.765 50.9083 35.784 49.6963 34.8022C49.1371 34.3493 48.8069 33.7306 48.7423 33.0158C48.693 32.4718 48.3716 32.0138 47.8845 31.7911C44.9759 30.4639 44.9152 28.5573 45.1378 27.5388C45.5136 25.8207 46.9572 24.7124 49.2029 24.4201C49.7077 24.3543 50.153 24.0494 50.3947 23.6028C50.6211 23.1853 50.6376 22.7058 50.4364 22.2858C49.7026 20.8144 47.8137 17.0277 50.7565 15.0919C51.7864 14.4151 52.9706 14.405 54.0928 15.0628C54.1067 15.0628 54.1447 15.0502 54.1586 15.0059C55.5212 10.5626 57.882 8.42064 60.6338 9.13167C63.3856 9.8427 64.4142 12.8576 63.4551 17.406C63.445 17.4528 63.4767 17.4844 63.4842 17.4882C64.7811 17.4553 65.8185 18.0373 66.3916 19.1279C68.0275 22.2453 64.5432 24.6453 63.2299 25.5474C62.8099 25.8473 62.591 26.2749 62.5872 26.7493C62.5834 27.2567 62.8264 27.7387 63.235 28.0411C65.0581 29.3847 65.7856 31.0522 65.2833 32.7374C64.9848 33.7369 64.0106 35.3741 60.821 35.1286C60.2795 35.0869 59.7849 35.3323 59.4774 35.784C59.0738 36.3786 58.4868 36.7595 57.777 36.8847C57.5974 36.9163 57.4152 36.9315 57.2317 36.9315L57.2342 36.9353ZM54.0156 33.8521C54.2067 33.8521 54.3952 33.9115 54.5521 34.0241C55.2353 34.5138 56.6333 35.2374 57.4632 35.0856C57.6884 35.0451 57.839 34.9477 57.9655 34.7605C58.6348 33.7724 59.7798 33.2119 60.9653 33.3068C62.419 33.4181 63.2818 33.0525 63.5311 32.2175C63.8043 31.3015 63.34 30.3943 62.152 29.5176C61.2714 28.8698 60.7515 27.8311 60.759 26.7392C60.7666 25.6701 61.2651 24.7048 62.1267 24.0899L62.1963 24.0406C64.6191 22.3731 65.3896 21.1585 64.7722 19.9819C64.6052 19.663 64.3142 19.3025 63.5336 19.3215C62.9655 19.324 62.4329 19.0912 62.0672 18.6522C61.6902 18.1992 61.5435 17.6084 61.6662 17.0315C62.0951 14.9983 62.4708 11.5001 60.1783 10.908C57.8845 10.3171 56.5207 13.5598 55.9109 15.5461C55.7375 16.1104 55.3238 16.557 54.7747 16.7708C54.2421 16.9783 53.6563 16.9328 53.1679 16.6456C52.4961 16.2509 52.0647 16.4267 51.7636 16.6253C50.6528 17.3566 50.7388 18.7926 52.0533 21.4267L52.09 21.5014C52.5455 22.4553 52.5138 23.5421 52.004 24.4809C51.4827 25.4399 50.5237 26.0978 49.4395 26.2382C47.9756 26.4292 47.1305 26.9986 46.9255 27.9323C46.7396 28.7837 47.3177 29.5226 48.6437 30.1274C49.7203 30.6195 50.4567 31.6633 50.5642 32.8513C50.5844 33.0778 50.6692 33.2359 50.8463 33.3802C51.5017 33.9128 53.0731 33.9571 53.9081 33.8597C53.9435 33.8559 53.9789 33.8533 54.0144 33.8533L54.0156 33.8521Z" fill="#330000"/>
<path d="M36.6092 102.191C43.5854 103.992 62.9174 71.1015 64.8075 56.9302C65.7046 50.1994 63.0768 45.7865 60.0694 43.0094C55.9639 39.2176 50.1605 37.7184 44.7316 39.0494C40.7552 40.0236 36.3194 42.6121 33.846 48.9368C28.6398 62.2515 29.6317 100.389 36.6092 102.191Z" fill="white"/>
<g opacity="0.15">
<path d="M31.7775 88.4509C34.2711 88.9709 36.6282 89.7882 39.0004 90.6624C39.1269 90.7105 39.1914 90.8522 39.1446 90.9787C39.1029 91.0913 38.9852 91.1546 38.8713 91.1343C36.4776 90.7168 34.0168 90.3373 31.5991 90.2753C30.2782 90.2171 30.4667 88.2535 31.7775 88.4522V88.4509Z" fill="#330000"/>
<path d="M49.7861 89.935C46.3764 87.5438 42.2431 86.0888 38.2527 84.9084C38.1097 84.8717 38.1553 84.6415 38.3058 84.6693C39.3648 84.849 40.425 85.0451 41.4777 85.2791C44.1282 85.8738 46.756 86.6316 49.2433 87.7526C49.948 88.1473 51.6598 88.561 51.0652 89.7123C50.802 90.1589 50.1846 90.264 49.7861 89.9337V89.935Z" fill="#330000"/>
<path d="M33.7132 74.6908C37.5024 73.9848 41.5396 75.2146 44.6038 77.4679C44.7873 77.5982 44.6152 77.8993 44.4103 77.8057C40.9804 76.395 37.4227 75.4474 33.7397 75.0159C33.555 75.0096 33.531 74.7262 33.7119 74.6908H33.7132Z" fill="#330000"/>
<path d="M42.4569 62.2503C46.2461 61.5443 50.2833 62.7741 53.3476 65.0274C53.531 65.1577 53.359 65.4588 53.154 65.3652C49.7241 63.9545 46.1664 63.0069 42.4835 62.5754C42.3 62.5691 42.2734 62.2857 42.4556 62.2503H42.4569Z" fill="#330000"/>
<path d="M40.9083 44.2442C44.0965 43.5155 47.5593 44.41 50.2365 46.2141C50.3124 46.266 50.3313 46.3685 50.2807 46.4444C50.2365 46.5089 50.1555 46.5329 50.0846 46.5064C47.1279 45.4335 44.0788 44.7516 40.9424 44.5188C40.7843 44.5226 40.7526 44.2796 40.9083 44.2442Z" fill="#330000"/>
<path d="M56.6105 77.9575C53.674 75.1146 49.8468 73.1549 46.0399 71.6847C45.9336 71.648 45.9791 71.476 46.093 71.5025C50.3023 72.4464 54.3875 74.0076 57.8035 76.7328C58.7044 77.5349 57.4404 78.8393 56.6092 77.9575H56.6105Z" fill="#330000"/>
<path d="M63.7296 57.8449C59.5406 54.4846 54.4381 52.2414 49.3521 50.5512C49.242 50.5208 49.2812 50.3386 49.3989 50.3677C50.7451 50.6498 52.0912 50.9522 53.4108 51.3469C57.4455 52.5274 61.2967 54.1316 64.8063 56.5152C65.1922 56.7885 65.2845 57.3224 65.0113 57.7096C64.7177 58.1309 64.1066 58.1929 63.7296 57.8449Z" fill="#330000"/>
<path d="M31.7813 55.7978C34.7456 55.7801 37.634 56.3406 40.4427 57.1959C40.6464 57.2553 40.5743 57.5779 40.363 57.5413C37.5898 57.1528 34.7077 57.0478 31.9572 57.4995C30.7502 57.6792 30.5591 55.87 31.7813 55.7966V55.7978Z" fill="#330000"/>
</g>
<g opacity="0.2">
<path d="M35.6148 101.657C33.502 99.916 32.0457 94.5187 31.255 87.6918C32.1634 90.417 33.3109 92.1984 34.6887 92.5539C41.2702 94.253 58.8423 65.0805 62.4038 49.8768C62.8732 51.7568 63.0149 53.9152 62.6859 56.3836C60.8919 69.8515 43.3451 100.226 35.6148 101.657Z" fill="#330000"/>
</g>
<path d="M37.1823 103.176C36.904 103.176 36.637 103.144 36.3802 103.078C35.2087 102.775 34.1725 101.757 33.3008 100.05C28.5411 90.7422 28.3615 60.4512 32.9946 48.6028C35.1505 43.0891 39.1345 39.4783 44.5141 38.16C50.282 36.7455 56.3283 38.3067 60.6907 42.3363C64.7595 46.0952 66.4979 51.1838 65.7147 57.0504C64.0333 69.6605 49.2117 96.0775 40.5414 101.919C39.3003 102.755 38.1742 103.176 37.1823 103.176ZM36.8382 101.304C37.4708 101.468 38.3982 101.155 39.5179 100.401C47.7162 94.8781 62.3 68.804 63.8992 56.8088C64.6102 51.4823 63.1122 47.0656 59.447 43.6812C55.5958 40.1248 50.0404 38.6901 44.9493 39.9376C40.1049 41.1256 36.656 44.2645 34.6988 49.2695C30.2909 60.5398 30.4301 90.4145 34.9303 99.2164C35.5452 100.418 36.2043 101.141 36.8382 101.304Z" fill="#330000"/>
</g>
<defs>
<clipPath id="clip0_14_2256">
<rect width="65" height="94.1764" fill="white" transform="translate(13.2666 9)"/>
</clipPath>
</defs>
</svg>
