<svg width="92" height="112" viewBox="0 0 92 112" fill="none" xmlns="http://www.w3.org/2000/svg">
<rect x="2.2334" y="1.5" width="88" height="109" rx="6.5" fill="#FFE9B6"/>
<rect x="2.2334" y="1.5" width="88" height="109" rx="6.5" stroke="white" stroke-width="3"/>
<path d="M12.7334 6H8.7334C7.62883 6 6.7334 6.89543 6.7334 8V12.5" stroke="#FA6E21" stroke-opacity="0.4" stroke-width="3" stroke-linecap="round" stroke-linejoin="bevel"/>
<path d="M19.7334 6H17.7334" stroke="#FA6E21" stroke-opacity="0.4" stroke-width="3" stroke-linecap="round" stroke-linejoin="bevel"/>
<path d="M6.7334 27L6.7334 18" stroke="#FA6E21" stroke-opacity="0.4" stroke-width="3" stroke-linecap="round" stroke-linejoin="bevel"/>
<path d="M78.7334 105L82.7334 105C83.838 105 84.7334 104.105 84.7334 103L84.7334 98" stroke="#E8C475" stroke-width="3" stroke-linecap="round" stroke-linejoin="bevel"/>
<path d="M71.7334 105L73.7334 105" stroke="#E8C475" stroke-width="3" stroke-linecap="round" stroke-linejoin="bevel"/>
<path d="M84.7334 84L84.7334 93" stroke="#E8C475" stroke-width="3" stroke-linecap="round" stroke-linejoin="bevel"/>
<g clip-path="url(#clip0_14_2148)">
<path d="M46.6667 89C64.616 89 79.1667 74.4493 79.1667 56.5C79.1667 38.5507 64.616 24 46.6667 24C28.7175 24 14.1667 38.5507 14.1667 56.5C14.1667 74.4493 28.7175 89 46.6667 89Z" fill="#FFA5D5"/>
<path d="M73.8416 64.8654C69.2907 78.6027 53.7125 85.7978 39.0453 80.9383C24.3729 76.0787 16.1695 61.0078 20.7204 47.2692C21.5503 44.7654 22.7484 42.4755 24.2388 40.4372C26.0645 37.9499 28.4797 36.0218 31.2239 34.7541C33.5936 33.6508 36.2024 33.0473 38.8782 32.9929C42.6852 32.9132 47.6599 33.3915 53.3823 35.3221C58.2305 36.958 62.0994 38.8317 65.0561 40.5562C66.1986 41.2179 67.2069 41.8555 68.0774 42.4527C68.2026 42.5349 68.3203 42.6197 68.438 42.7083C70.0814 43.8899 71.4744 45.3689 72.5397 47.0579C73.5455 48.6356 74.2629 50.3968 74.631 52.2654C75.4319 56.3722 75.2282 60.6827 73.8428 64.8654H73.8416Z" fill="#EA2F53"/>
<g opacity="0.2">
<path d="M72.5221 49.644C72.3601 48.8191 72.1261 48.017 71.8325 47.2401C72.1767 47.1364 72.3297 46.7277 72.1159 46.4228C71.6023 45.6903 71.0215 45.0058 70.3864 44.3707C70.3852 44.3682 70.3839 44.3669 70.3826 44.3644C70.1207 44.1 69.8462 43.8494 69.5653 43.604C69.5299 43.5736 69.4957 43.5433 69.4616 43.5129C69.1503 43.246 68.8277 42.9917 68.495 42.75C68.4899 42.7462 68.4861 42.7424 68.4811 42.7399C68.4785 42.7386 68.476 42.7374 68.4735 42.7361C68.3419 42.6412 68.2116 42.5438 68.0762 42.4527C67.1956 41.8543 66.1784 41.2115 65.0309 40.5448C65.0258 40.541 65.0208 40.5372 65.0157 40.5334C64.9816 40.5144 64.9449 40.4942 64.9107 40.4739C64.8487 40.4385 64.7905 40.4031 64.7285 40.3664C64.7285 40.3677 64.7285 40.3689 64.7285 40.3702C61.8136 38.6976 58.0572 36.8998 53.3811 35.3221C47.6587 33.3915 42.6853 32.9132 38.8771 32.9929C36.496 33.0423 34.1681 33.5256 32.0147 34.4087C31.6364 34.563 31.5529 35.0716 31.8768 35.3196C35.1549 37.8411 40.4472 37.8069 43.1357 37.5931C43.624 37.5539 43.896 38.1498 43.5443 38.4914C41.5061 40.4765 41.1721 42.2756 41.2252 43.3851C41.2467 43.8444 41.8161 44.0645 42.1298 43.7293C45.9001 39.7148 52.3854 40.6182 53.042 40.7219C53.0787 40.732 53.1116 40.7409 53.1483 40.7498C56.6579 42.0731 59.8905 46.2799 61.3176 48.3497C61.5972 48.7558 62.2323 48.5825 62.2791 48.0916C62.5828 44.8401 61.8351 42.9714 61.7807 42.8424C61.9401 42.9866 62.102 43.1258 62.2589 43.2637L62.2614 43.27C62.4221 43.4092 62.5803 43.5433 62.7371 43.6736C64.1782 44.8717 64.9297 46.7328 64.5932 48.5762C64.3933 49.6706 64.1174 50.7637 63.7581 51.8479C59.2085 65.5815 43.6291 72.7804 28.9618 67.9208C26.0658 66.9618 23.4254 65.5954 21.0823 63.9292C21.9021 66.1445 23.0231 68.2624 24.416 70.2158C27.6625 73.8014 31.9198 76.6544 36.9375 78.3168C51.6061 83.1751 67.1855 75.9762 71.7338 62.2439C73.1205 58.0574 73.3229 53.7508 72.5221 49.644Z" fill="#330000"/>
</g>
<g opacity="0.35">
<path d="M24.7487 54.9805C24.13 54.5719 24.0453 53.8001 24.0807 53.06C24.2793 48.8609 29.0883 38.0094 35.4787 38.8482C42.0956 39.7174 32.1247 47.4008 29.5994 51.1698C27.25 54.6744 26.4188 56.0838 24.75 54.9805H24.7487Z" fill="white"/>
</g>
<path d="M48.3456 83.4117C45.1764 83.4117 41.9375 82.9094 38.7404 81.8505C23.5936 76.8328 15.1005 61.1837 19.8095 46.9681C20.6533 44.4188 21.8831 42.0314 23.4646 39.873C26.9679 35.0893 32.7219 32.1579 38.8568 32.0327C43.7227 31.9365 48.71 32.7348 53.6872 34.415C60.7052 36.7834 65.6786 39.6604 68.6139 41.6569C72.2171 44.1076 74.7538 47.9082 75.5698 52.0833C76.4251 56.4519 76.1417 60.9775 74.7538 65.169C71.038 76.3861 60.1953 83.4117 48.3456 83.4117ZM39.664 33.9456C39.4071 33.9456 39.1516 33.9481 38.8973 33.9532C33.3558 34.0671 28.1673 36.7037 25.0157 41.0079C23.5531 43.0056 22.4157 45.2133 21.6339 47.5716C17.2576 60.7827 25.2042 75.3411 39.3464 80.0261C53.4886 84.7098 68.5544 77.7741 72.9307 64.5643C74.2161 60.6852 74.4767 56.4975 73.6847 52.4514C72.9648 48.7698 70.7217 45.4132 67.5334 43.2447C64.6969 41.3153 59.8841 38.5332 53.0724 36.2343C48.5683 34.7136 44.0605 33.9443 39.6627 33.9443L39.664 33.9456Z" fill="#330000"/>
<path d="M75.4763 42.1453C75.4763 42.1453 75.4699 42.1478 75.4674 42.1579C75.2979 42.5021 71.5934 49.515 61.9553 41.1445L61.9527 41.1382C61.7958 41.0003 61.6352 40.8611 61.4745 40.7169C61.5365 40.8636 62.4968 43.2675 61.7819 47.3983C61.7819 47.3983 57.5309 40.3525 52.7903 38.604C52.7903 38.604 44.9474 37.2212 41.1531 42.4122C41.1531 42.4122 39.5792 39.0064 44.5147 35.2753C44.5147 35.2753 31.2392 37.5033 29.0441 29.4315C29.1744 29.5403 31.6567 31.5975 34.8905 31.0952C38.2217 30.5739 46.9236 28.6736 51.7781 32.6754C51.7781 32.6754 53.6443 31.395 52.9345 27.9613C52.9345 27.9613 55.4497 27.1693 58.1724 28.208C58.1724 28.208 58.2103 28.8887 57.9396 29.9021C57.6726 30.9067 57.1007 32.2515 55.895 33.5825C55.895 33.5825 59.4565 32.9145 63.9327 37.6463C68.4102 42.3743 75.4763 42.1427 75.4763 42.1427V42.1453Z" fill="#35DB64"/>
<g opacity="0.25">
<path d="M29.974 31.5038C29.974 31.5038 34.6134 33.8431 40.9899 33.5205C47.3665 33.1966 49.0466 34.1151 49.0466 34.1151C49.0466 34.1151 45.909 34.353 44.1225 35.5802C42.3361 36.8074 32.8751 35.9471 29.974 31.5038Z" fill="#330000"/>
</g>
<g opacity="0.25">
<path d="M61.7819 47.3983C61.7819 47.3983 57.5309 40.3525 52.7902 38.604C52.7902 38.604 44.9474 37.2212 41.1531 42.4122C41.1531 42.4122 42.7978 36.9137 49.0364 36.3229C55.2763 35.7283 60.7166 39.7364 61.7819 47.3983Z" fill="#330000"/>
</g>
<g opacity="0.25">
<path d="M75.4674 42.1579C75.2979 42.502 71.5934 49.5149 61.9552 41.1445L61.9527 41.1382C60.2118 38.3548 58.4608 37.6842 58.4608 37.6842C61.806 37.2591 62.8674 40.0451 67.8409 42.3249C72.6169 44.5149 75.2624 42.3338 75.4674 42.1592V42.1579Z" fill="#330000"/>
</g>
<g opacity="0.6">
<path d="M54.7513 29.8236C53.681 33.6799 51.4872 32.6804 51.4872 32.6804C51.7288 32.9727 51.8376 33.2611 51.8667 33.5243C51.9338 34.1113 51.2443 34.4782 50.7584 34.1417C46.8642 31.4367 43.6861 32.4134 37.2476 32.6564C30.5497 32.9069 29.101 29.5782 29.0428 29.4327C29.1732 29.5415 31.6554 31.5987 34.8893 31.0964C38.2205 30.5751 46.9224 28.6748 51.7769 32.6766C51.7769 32.6766 53.643 31.3962 52.9333 27.9625C52.9333 27.9625 55.4485 27.1705 58.1711 28.2092C58.1711 28.2092 58.2091 28.8899 57.9383 29.9033C56.3695 29.3985 54.7501 29.8236 54.7501 29.8236H54.7513Z" fill="white"/>
</g>
<path d="M60.6356 41.1812C60.3016 40.1109 59.7019 39.062 59.1047 38.0942C59.0414 37.9942 59.0705 37.8614 59.1705 37.7981C59.2439 37.7513 59.3362 37.7551 59.4058 37.8006C60.48 38.5408 61.5073 39.2999 62.3714 40.3133C63.3304 41.6278 61.1138 42.7374 60.6356 41.1812Z" fill="#330000"/>
<path d="M44.1832 34.3707C45.5926 34.1303 46.9931 34.0683 48.4076 34.1253C48.5417 34.1316 48.6467 34.2455 48.6404 34.3796C48.6353 34.4846 48.5632 34.5719 48.4683 34.6023C47.2171 35.0071 45.9721 35.5258 44.8436 36.1761C43.4721 36.9099 42.6624 34.6946 44.1844 34.3707H44.1832Z" fill="#330000"/>
<path d="M61.7832 48.3598C61.4517 48.3598 61.1367 48.1878 60.9608 47.8955C60.9203 47.8285 56.8781 41.204 52.5448 39.5365C51.7414 39.4201 45.1271 38.6078 41.9299 42.9828C41.7288 43.2586 41.3973 43.4054 41.0595 43.3725C40.7204 43.3383 40.4256 43.1283 40.2814 42.8196C40.2169 42.6792 38.9707 39.854 41.7946 36.5C37.5246 36.6885 29.855 36.0964 28.1116 29.6794C28.0003 29.2708 28.1698 28.8381 28.5279 28.6129C28.8859 28.3877 29.349 28.4231 29.6691 28.7014C29.688 28.7179 31.9135 30.5878 34.7437 30.1463C35.0157 30.1033 35.3244 30.0514 35.6648 29.9944C39.3452 29.3745 46.8059 28.1194 51.6503 31.3824C51.9843 30.8383 52.3373 29.8224 51.9932 28.1549C51.8932 27.6716 52.1754 27.1908 52.6473 27.044C52.7624 27.0074 55.5167 26.1673 58.5165 27.3097C58.872 27.4451 59.1149 27.7779 59.1339 28.1574C59.1389 28.2624 59.2262 30.3538 57.7397 32.7374C59.3819 33.0613 61.8692 34.0683 64.6311 36.9858C68.7455 41.333 75.3801 41.185 75.4471 41.1863C75.7811 41.1698 76.1 41.3419 76.2822 41.6227C76.4643 41.9036 76.4884 42.2604 76.3429 42.5628C76.2872 42.6792 74.9297 45.4297 71.6908 46.0648C69.1212 46.5696 66.1911 45.5992 62.956 43.1814C63.0522 44.329 63.0357 45.8029 62.7321 47.5615C62.6637 47.9562 62.3576 48.2675 61.9628 48.3421C61.9034 48.3535 61.8439 48.3586 61.7844 48.3586L61.7832 48.3598ZM50.4231 37.4679C51.8477 37.4679 52.8421 37.6349 52.9573 37.6551C53.0142 37.6652 53.0699 37.6804 53.1243 37.7007C56.3948 38.9089 59.3667 42.3452 61.0823 44.663C61.1126 42.3781 60.5964 41.104 60.5888 41.0876C60.4155 40.6726 60.5522 40.1893 60.9191 39.9299C61.286 39.6706 61.7832 39.6971 62.1172 39.9982C65.6635 43.2042 68.8328 44.6528 71.291 44.1847C72.3044 43.9924 73.0623 43.5053 73.5962 43.0157C71.0608 42.7551 66.5301 41.791 63.2331 38.3067C59.2326 34.0797 56.1885 34.5112 56.0595 34.5327C55.6534 34.5947 55.2498 34.4011 55.0562 34.043C54.8614 33.685 54.9082 33.2434 55.1815 32.9411C56.6351 31.3343 57.0514 29.7452 57.1678 28.8912C55.9127 28.5534 54.7526 28.6129 54.0175 28.7166C54.3388 32.0415 52.4082 33.4054 52.3183 33.4674C51.9654 33.7078 51.4947 33.6875 51.1645 33.4155C47.0501 30.0273 39.5742 31.2837 35.981 31.8884C35.6331 31.9466 35.3168 31.9998 35.0385 32.044C33.6734 32.2566 32.4335 32.0744 31.4061 31.7518C35.2397 35.7839 44.2452 34.3441 44.3515 34.3264C44.7867 34.2518 45.2169 34.4884 45.3927 34.8945C45.5673 35.3006 45.4433 35.7738 45.0904 36.0408C43.0218 37.6058 42.2374 39.057 41.9805 40.1374C44.6501 37.9107 48.1053 37.4691 50.4218 37.4691L50.4231 37.4679Z" fill="#330000"/>
</g>
<defs>
<clipPath id="clip0_14_2148">
<rect width="65" height="65" fill="white" transform="translate(14.1667 24)"/>
</clipPath>
</defs>
</svg>
