<svg width="92" height="112" viewBox="0 0 92 112" fill="none" xmlns="http://www.w3.org/2000/svg">
<rect x="2.23334" y="1.5" width="88" height="109" rx="6.5" fill="#FFE9B6"/>
<rect x="2.23334" y="1.5" width="88" height="109" rx="6.5" stroke="white" stroke-width="3"/>
<path d="M12.7333 6H8.73334C7.62877 6 6.73334 6.89543 6.73334 8V12.5" stroke="#FA6E21" stroke-opacity="0.4" stroke-width="3" stroke-linecap="round" stroke-linejoin="bevel"/>
<path d="M19.7333 6H17.7333" stroke="#FA6E21" stroke-opacity="0.4" stroke-width="3" stroke-linecap="round" stroke-linejoin="bevel"/>
<path d="M6.73334 27L6.73334 18" stroke="#FA6E21" stroke-opacity="0.4" stroke-width="3" stroke-linecap="round" stroke-linejoin="bevel"/>
<path d="M78.7333 105L82.7333 105C83.8379 105 84.7333 104.105 84.7333 103L84.7333 98" stroke="#E8C475" stroke-width="3" stroke-linecap="round" stroke-linejoin="bevel"/>
<path d="M71.7333 105L73.7333 105" stroke="#E8C475" stroke-width="3" stroke-linecap="round" stroke-linejoin="bevel"/>
<path d="M84.7333 84L84.7333 93" stroke="#E8C475" stroke-width="3" stroke-linecap="round" stroke-linejoin="bevel"/>
<g clip-path="url(#clip0_14_2340)">
<path d="M45.9621 89.0001C59.1959 89.0001 69.9241 78.272 69.9241 65.0381C69.9241 51.8043 59.1959 41.0761 45.9621 41.0761C32.7282 41.0761 22.0001 51.8043 22.0001 65.0381C22.0001 78.272 32.7282 89.0001 45.9621 89.0001Z" fill="#E7C0FF"/>
<path d="M48.1617 46.2149C48.1617 46.2149 47.9509 48.1197 48.4705 49.6029L47.4864 49.8491C47.4864 49.8491 47.5395 47.9248 47.0405 46.6459C47.0405 46.6459 43.9445 44.4006 42.16 40.8438C40.8214 38.176 41.4632 37.1135 42.2095 36.954C42.8932 36.8075 43.2085 36.009 42.8988 35.3822C42.8447 35.2721 42.7813 35.1546 42.7094 35.0305C41.7113 33.3086 40.7067 30.9952 41.7216 30.2284C42.1563 29.9001 42.6413 30.096 43.0023 30.3553C43.2467 30.5307 43.5872 30.3749 43.6133 30.0754C43.7523 28.485 44.16 25.0737 45.1086 25.0206C46.034 24.9683 47.0852 28.0289 47.5563 29.5736C47.6832 29.9896 48.1626 30.1818 48.5423 29.9682C49.0124 29.7042 49.5898 29.457 49.9023 29.6193C50.4853 29.9215 51.1038 31.9177 49.7745 35.0884C49.7745 35.0884 49.6421 36.3542 50.3184 36.4279C50.9937 36.5016 51.2633 35.9969 51.8304 36.4419C52.4806 36.9512 52.6765 43.2355 48.1626 46.2158L48.1617 46.2149Z" fill="#43DD81"/>
<g opacity="0.2">
<path d="M41.591 31.246C41.8354 31.4214 42.1759 31.2656 42.202 30.9662C42.2244 30.7059 42.2552 30.3972 42.2934 30.0623C42.1022 30.0464 41.9072 30.0875 41.7207 30.2283C41.4642 30.4224 41.3373 30.7162 41.3065 31.0735C41.4073 31.1229 41.5024 31.1817 41.591 31.2451V31.246Z" fill="#330000"/>
</g>
<g opacity="0.2">
<path d="M51.8295 36.4417C51.2623 35.9968 50.9928 36.5014 50.3174 36.4278C49.642 36.3541 49.7736 35.0882 49.7736 35.0882C51.1028 31.9186 50.4844 29.9214 49.9014 29.6192C49.5889 29.4578 49.0115 29.7041 48.5413 29.9681C48.1617 30.1817 47.6822 29.9895 47.5554 29.5735C47.0852 28.0287 46.0339 24.9682 45.1077 25.0204C44.7541 25.04 44.4752 25.5288 44.2579 26.2144C45.0172 27.0166 45.7672 29.2255 46.1449 30.4634C46.2718 30.8794 46.7513 31.0716 47.1309 30.858C47.6011 30.594 48.1785 30.3468 48.491 30.5091C49.074 30.8113 49.6924 32.8075 48.3632 35.9781C48.3632 35.9781 48.2307 37.244 48.907 37.3177C49.5823 37.3913 49.8519 36.8867 50.4191 37.3316C51.0515 37.827 51.2521 43.783 47.1123 46.85C47.533 48.1196 47.4863 49.849 47.4863 49.849L48.4704 49.6028C47.9509 48.1196 48.1617 46.2148 48.1617 46.2148C52.6755 43.2354 52.4797 36.9511 51.8295 36.4408V36.4417Z" fill="#330000"/>
</g>
<g opacity="0.6">
<path d="M48.4705 49.6029C48.1934 48.8119 48.1244 47.9024 48.1207 47.2243C47.6851 46.894 44.9454 44.7393 43.3055 41.4716C41.9669 38.8038 42.6087 37.7413 43.355 37.5818C44.0387 37.4354 44.354 36.6369 44.0443 36.01C43.9902 35.9 43.9268 35.7824 43.8549 35.6584C42.8568 33.9364 41.8522 31.623 42.8671 30.8563C43.3018 30.5279 43.7868 30.7238 44.1478 30.9831C44.3922 31.1585 44.7327 31.0027 44.7588 30.7033C44.8848 29.2649 45.2299 26.3359 45.9976 25.751C45.7038 25.2958 45.3997 25.0029 45.1086 25.0197C44.16 25.0738 43.7523 28.4851 43.6133 30.0746C43.5872 30.374 43.2458 30.5298 43.0024 30.3544C42.6414 30.0951 42.1572 29.8983 41.7216 30.2275C40.7067 30.9934 41.7123 33.3067 42.7094 35.0296C42.7813 35.1537 42.8447 35.2712 42.8988 35.3813C43.2085 36.0082 42.8932 36.8066 42.2095 36.9531C41.4641 37.1126 40.8214 38.1751 42.16 40.8429C43.9445 44.3997 47.0405 46.645 47.0405 46.645C47.5395 47.9248 47.4864 49.8482 47.4864 49.8482L48.4705 49.602V49.6029Z" fill="white"/>
</g>
<path d="M47.4761 49.7308C46.2849 42.856 45.4052 35.9206 45.381 28.9395C45.3801 28.8023 45.6039 28.7874 45.6067 28.9367C45.8698 35.8684 46.9882 42.7637 48.4052 49.5396C48.5367 50.1581 47.6029 50.3614 47.4761 49.7299V49.7308Z" fill="#330000"/>
<path d="M45.6832 35.2237C46.4612 34.1361 47.3306 33.0298 48.31 32.18C47.9789 32.7201 47.4621 33.2359 47.0946 33.7844C46.7065 34.3152 46.325 34.8655 46.0106 35.4243C45.8819 35.6491 45.5405 35.442 45.6832 35.2237Z" fill="#330000"/>
<path d="M45.7532 36.1332C44.992 34.9122 44.062 33.8021 43.1199 32.7117C43.0723 32.6576 43.1498 32.5746 43.2067 32.6221C44.3382 33.5587 45.257 34.7154 46.0788 35.9308C46.2178 36.1407 45.881 36.3524 45.7532 36.1332Z" fill="#330000"/>
<path d="M46.5274 42.2357C47.4024 40.8551 48.5591 39.6835 49.9061 38.7768C49.9312 38.76 49.9667 38.7666 49.9835 38.7927C49.9993 38.816 49.9937 38.8477 49.9732 38.8664C49.6766 39.1341 49.3762 39.3953 49.0936 39.6761C48.255 40.5053 47.4742 41.4241 46.8595 42.4278C46.7354 42.6517 46.394 42.4577 46.5265 42.2366L46.5274 42.2357Z" fill="#330000"/>
<path d="M46.2961 41.7917C45.6543 40.7628 44.9006 39.746 43.9538 38.9652C43.9072 38.9307 43.9566 38.8542 44.0079 38.8841C45.1124 39.5277 46.0303 40.4176 46.8773 41.3784C47.006 41.5286 46.9892 41.7543 46.8399 41.8831C46.6739 42.0295 46.4062 41.9838 46.297 41.7917H46.2961Z" fill="#330000"/>
<path d="M47.4864 50.3231C47.3791 50.3231 47.2746 50.2867 47.1897 50.2186C47.0741 50.1262 47.0088 49.9844 47.0125 49.8361C47.0125 49.8184 47.0526 48.1142 46.644 46.9407C46.0443 46.4817 43.3746 44.3223 41.7356 41.0556C40.911 39.412 40.6983 38.148 41.106 37.3001C41.3112 36.8719 41.6675 36.5846 42.1097 36.4895C42.3261 36.4429 42.4324 36.2833 42.4763 36.1919C42.5667 36.0044 42.5658 35.7796 42.4735 35.5912C42.4231 35.4895 42.3653 35.3823 42.299 35.2666C41.1834 33.3413 40.1274 30.8376 41.4352 29.8498C41.7263 29.6306 42.3261 29.3554 43.1544 29.8852C43.6329 24.6288 44.6842 24.5691 45.0816 24.5467C45.4678 24.5244 46.4948 24.4647 48.0097 29.4347C48.0349 29.5167 48.0964 29.5522 48.13 29.5662C48.1645 29.5802 48.2336 29.597 48.3091 29.5541C49.1281 29.0942 49.7027 28.9804 50.1206 29.1968C50.9881 29.6464 51.6187 31.8618 50.241 35.2004C50.2195 35.5427 50.2895 35.899 50.3678 35.9559C50.546 35.9755 50.6766 35.9326 50.8426 35.8804C51.1402 35.788 51.5889 35.6481 52.1234 36.0669C52.6691 36.4942 52.6691 37.9727 52.6448 38.5883C52.5944 39.828 52.1532 44.0079 48.6179 46.478C48.5834 46.9967 48.5395 48.3604 48.9201 49.4443C48.9639 49.5703 48.9537 49.7093 48.8903 49.8259C48.8268 49.9434 48.7168 50.0283 48.588 50.0609L47.6039 50.3063C47.5657 50.3156 47.5274 50.3203 47.4892 50.3203L47.4864 50.3231ZM42.2244 30.5298C42.1087 30.5298 42.0425 30.5792 42.0071 30.6072C41.453 31.026 41.8895 32.6687 43.1199 34.7927C43.1973 34.927 43.2654 35.0539 43.3232 35.1724C43.5453 35.6211 43.5471 36.1565 43.3298 36.6061C43.1264 37.0268 42.7533 37.3234 42.3074 37.4186C42.1544 37.4512 42.0378 37.5501 41.9604 37.7115C41.8364 37.9699 41.6489 38.7711 42.5826 40.6312C44.2915 44.0369 47.2877 46.2402 47.3175 46.2625C47.3912 46.3157 47.4481 46.3894 47.4808 46.4743C47.5433 46.6338 47.5974 46.8017 47.645 46.9743C47.6524 46.5097 47.686 46.1954 47.6897 46.1637C47.7056 46.0237 47.7821 45.8978 47.8996 45.8204C50.4107 44.1628 51.2465 41.4847 51.5217 40.036C51.8538 38.288 51.6532 37.0371 51.5114 36.7964C51.3892 36.705 51.3529 36.7162 51.1234 36.788C50.9182 36.8524 50.6365 36.9391 50.2652 36.899C49.4742 36.8122 49.2111 35.9028 49.3016 35.039C49.3063 34.9923 49.3184 34.9476 49.3361 34.9047C50.5964 31.8991 49.9583 30.2014 49.6822 30.0391C49.6365 30.0289 49.352 30.0559 48.7737 30.3815C48.4677 30.554 48.1048 30.5783 47.7774 30.4468C47.4509 30.3162 47.2047 30.0485 47.1021 29.7117C46.0834 26.3676 45.3297 25.5327 45.1264 25.4935C44.9622 25.5775 44.395 26.5775 44.0863 30.1175C44.0592 30.43 43.8727 30.694 43.5882 30.8245C43.3074 30.9533 42.9762 30.9216 42.7253 30.7406C42.4986 30.5774 42.3373 30.5298 42.2244 30.5298Z" fill="#330000"/>
<path d="M50.5021 47.3354C50.5021 47.3354 49.0599 48.5984 48.4424 50.0433L47.5507 49.5601C47.5507 49.5601 48.8883 48.1768 49.3836 46.896C49.3836 46.896 48.615 43.1499 49.6999 39.3207C50.5133 36.4486 51.7035 36.0988 52.3621 36.484C52.9656 36.8375 53.737 36.4616 53.932 35.79C53.9665 35.6725 53.9992 35.5437 54.0299 35.4029C54.4562 33.4589 55.2771 31.0737 56.542 31.1931C57.0849 31.2444 57.3097 31.7155 57.4011 32.1511C57.4627 32.445 57.82 32.5606 58.041 32.3573C59.2173 31.278 61.8208 29.0365 62.5568 29.6372C63.275 30.223 61.984 33.1912 61.2891 34.6482C61.1016 35.041 61.3264 35.5064 61.7499 35.6044C62.275 35.7266 62.8674 35.9346 62.9886 36.2648C63.2153 36.8814 62.3236 38.7722 59.2033 40.2134C59.2033 40.2134 58.2518 41.0576 58.7005 41.5688C59.1492 42.0799 59.6884 41.8887 59.8068 42.6004C59.9421 43.4157 55.8443 48.1842 50.503 47.3354H50.5021Z" fill="#43DD81"/>
<g opacity="0.2">
<path d="M55.7595 31.8564C55.821 32.1502 56.1783 32.2659 56.3994 32.0625C56.5915 31.8862 56.8229 31.6782 57.0766 31.4572C56.946 31.3163 56.7744 31.2156 56.5421 31.1932C56.2212 31.1633 55.9302 31.2939 55.6662 31.5374C55.7072 31.6409 55.738 31.7501 55.7604 31.8564H55.7595Z" fill="#330000"/>
</g>
<g opacity="0.2">
<path d="M59.8059 42.6004C59.6874 41.8887 59.1483 42.0799 58.6996 41.5687C58.2509 41.0585 59.2024 40.2134 59.2024 40.2134C62.3226 38.7722 63.2144 36.8814 62.9877 36.2648C62.8664 35.9346 62.2741 35.7266 61.7489 35.6044C61.3254 35.5055 61.1006 35.0409 61.2881 34.6482C61.9831 33.1912 63.2741 30.223 62.5558 29.6372C62.2816 29.4133 61.7461 29.5849 61.1221 29.9441C61.1408 31.0485 60.2033 33.1847 59.6464 34.3525C59.4589 34.7452 59.6837 35.2107 60.1072 35.3087C60.6324 35.4309 61.2247 35.6389 61.346 35.9691C61.5726 36.5857 60.6809 38.4765 57.5606 39.9177C57.5606 39.9177 56.6092 40.7619 57.0578 41.273C57.5065 41.7833 58.0457 41.593 58.1642 42.3047C58.2957 43.0976 54.4245 47.6264 49.2997 47.0956C48.7521 48.3167 47.5507 49.5601 47.5507 49.5601L48.4424 50.0433C49.0599 48.5984 50.5021 47.3354 50.5021 47.3354C55.8433 48.1842 59.9412 43.4157 59.8059 42.6004Z" fill="#330000"/>
</g>
<g opacity="0.6">
<path d="M48.4424 50.0433C48.7717 49.2719 49.3351 48.5555 49.7894 48.0527C49.6905 47.5154 49.1243 44.0761 50.1206 40.5585C50.934 37.6864 52.1242 37.3366 52.7828 37.7219C53.3863 38.0754 54.1578 37.6995 54.3527 37.0278C54.3872 36.9103 54.4199 36.7816 54.4507 36.6407C54.877 34.6968 55.6978 32.3116 56.9627 32.431C57.5056 32.4823 57.7304 32.9533 57.8218 33.389C57.8834 33.6828 58.2407 33.7985 58.4617 33.5951C59.5251 32.6185 61.7574 30.6913 62.7182 30.7771C62.8086 30.2426 62.7825 29.8219 62.5558 29.6372C61.8199 29.0365 59.2164 31.278 58.0401 32.3573C57.819 32.5606 57.4618 32.445 57.4002 32.1511C57.3088 31.7155 57.084 31.2444 56.5411 31.1931C55.2753 31.0737 54.4553 33.4589 54.029 35.4029C53.9983 35.5437 53.9656 35.6725 53.9311 35.79C53.7361 36.4616 52.9647 36.8375 52.3612 36.484C51.7035 36.0988 50.5123 36.4486 49.6989 39.3207C48.6141 43.1499 49.3827 46.896 49.3827 46.896C48.8874 48.1768 47.5497 49.5601 47.5497 49.5601L48.4415 50.0433H48.4424Z" fill="white"/>
</g>
<path d="M47.6234 49.4668C51.3854 43.5911 55.418 37.8795 60.1119 32.7136C60.2042 32.6119 60.3786 32.7518 60.2798 32.8638C55.7948 38.1556 51.9656 43.9978 48.4368 49.9538C48.1159 50.4995 47.2904 50.0181 47.6225 49.4668H47.6234Z" fill="#330000"/>
<path d="M56.0932 37.5531C57.402 37.276 58.79 37.0465 60.0857 37.0801C59.4765 37.2555 58.7471 37.2863 58.1053 37.4439C57.4598 37.5736 56.8078 37.7219 56.1986 37.9224C55.9514 38.0017 55.8395 37.6183 56.0932 37.5531Z" fill="#330000"/>
<path d="M55.5317 38.2713C55.7948 36.8572 55.8573 35.4104 55.8993 33.9692C55.9002 33.8965 56.014 33.8881 56.0242 33.9617C56.2267 35.4169 56.1241 36.8898 55.9095 38.3413C55.8657 38.5913 55.4832 38.5223 55.5327 38.2704L55.5317 38.2713Z" fill="#330000"/>
<path d="M51.9833 43.2964C53.5607 42.8682 55.2043 42.7852 56.8106 43.0249C56.8414 43.0296 56.8619 43.0585 56.8572 43.0884C56.8526 43.1164 56.8274 43.1359 56.8003 43.1359C55.223 43.0986 53.6176 43.2274 52.099 43.6621C51.8565 43.7432 51.7352 43.3701 51.9824 43.2964H51.9833Z" fill="#330000"/>
<path d="M52.112 42.8132C52.3872 41.6015 52.3742 40.2834 52.3322 39.0903C52.8294 40.2274 52.8098 41.635 52.82 42.9009C52.8135 43.0986 52.6493 43.2535 52.4516 43.2479C52.2305 43.2432 52.0635 43.0296 52.113 42.8132H52.112Z" fill="#330000"/>
<path d="M48.4425 50.518C48.3641 50.518 48.2867 50.4993 48.2168 50.4611L47.325 49.9779C47.1944 49.907 47.1049 49.7801 47.0825 49.6337C47.0601 49.4872 47.1067 49.3389 47.2093 49.2317C47.2215 49.2195 48.4015 47.9892 48.8921 46.8474C48.7597 46.1039 48.2475 42.7085 49.2438 39.1928C49.7447 37.4232 50.4415 36.3477 51.3137 35.997C51.754 35.8197 52.211 35.8477 52.601 36.0762C52.7913 36.1873 52.9778 36.1415 53.073 36.1042C53.267 36.0268 53.4172 35.8608 53.4759 35.6593C53.5077 35.5511 53.5375 35.4317 53.5664 35.302C54.0431 33.1276 54.9591 30.5699 56.5859 30.7219C56.9488 30.7564 57.5766 30.9589 57.8303 31.9085C61.7313 28.3535 62.5475 29.0186 62.8553 29.2705C63.1557 29.5158 63.9532 30.166 61.7164 34.8533C61.6791 34.9308 61.7005 34.9989 61.7164 35.0315C61.7322 35.0651 61.7723 35.1238 61.8563 35.1434C62.7695 35.3561 63.2714 35.6602 63.4327 36.1024C63.7695 37.0203 62.7387 39.0808 59.4692 40.6134C59.222 40.8513 59.0336 41.1619 59.0532 41.2561C59.1707 41.3886 59.2957 41.4474 59.4534 41.5211C59.7351 41.6535 60.1604 41.8531 60.2724 42.5229C60.3862 43.2066 59.3881 44.298 58.9543 44.7355C58.0803 45.6161 54.9339 48.3996 50.6579 47.8371C50.2829 48.1962 49.3296 49.1729 48.8781 50.2298C48.8259 50.3529 48.7242 50.4471 48.5983 50.4909C48.5479 50.5087 48.4947 50.5171 48.4425 50.5171V50.518ZM51.8883 36.829C51.8183 36.829 51.7446 36.8439 51.6682 36.8747C51.4023 36.982 50.7232 37.4465 50.1561 39.4493C49.1179 43.1162 49.8408 46.7644 49.8482 46.8008C49.8669 46.8894 49.8585 46.9827 49.8259 47.0666C49.7643 47.2261 49.6906 47.3866 49.6094 47.5461C49.9285 47.2084 50.1654 46.9994 50.1897 46.978C50.296 46.8856 50.4378 46.8437 50.5768 46.8661C53.5478 47.3362 55.9721 45.9267 57.1531 45.0443C58.5784 43.9781 59.2752 42.9203 59.3321 42.647C59.3041 42.4968 59.2696 42.4809 59.0513 42.3783C58.8564 42.2869 58.5896 42.1619 58.3433 41.8811C57.8182 41.2832 58.2379 40.4343 58.8881 39.8588C58.9226 39.828 58.9618 39.8019 59.0038 39.7832C61.9626 38.4167 62.638 36.7339 62.5428 36.427C62.5149 36.3859 62.2873 36.2162 61.6417 36.0669C61.2985 35.9867 61.014 35.7591 60.8619 35.4419C60.7099 35.1248 60.7089 34.761 60.861 34.4438C62.3665 31.2881 62.374 30.165 62.2499 29.9981C62.0699 29.9486 60.9785 30.304 58.362 32.7069C58.1316 32.9187 57.8154 32.9877 57.5169 32.8926C57.223 32.7984 57.001 32.5512 56.9367 32.248C56.821 31.6948 56.5859 31.6734 56.4973 31.665C55.8052 31.6006 55.0188 33.1062 54.4936 35.5044C54.4601 35.6565 54.4255 35.7945 54.3882 35.9223C54.2492 36.4027 53.8892 36.8001 53.4256 36.9848C52.9918 37.1574 52.517 37.1247 52.1234 36.8943C52.0506 36.8514 51.9723 36.83 51.8892 36.83L51.8883 36.829Z" fill="#330000"/>
<path d="M49.6309 46.3026C49.6309 46.3026 48.5572 48.0358 48.3781 49.698L47.3203 49.4844C47.3203 49.4844 48.2503 47.6608 48.3566 46.2037C48.3566 46.2037 46.4099 42.632 46.3222 38.3999C46.256 35.2255 47.3585 34.4989 48.1477 34.6863C48.8716 34.858 49.5394 34.2358 49.5282 33.4924C49.5264 33.3618 49.5199 33.2209 49.5068 33.0679C49.3361 30.9579 49.4284 28.277 50.753 28.0046C51.3211 27.888 51.6961 28.2975 51.9246 28.7126C52.0785 28.9925 52.4778 28.999 52.6392 28.7238C53.4992 27.2603 55.4507 24.1708 56.3863 24.5523C57.2995 24.9254 56.9096 28.3451 56.6549 30.0438C56.5868 30.5018 56.959 30.9047 57.4217 30.873C57.9935 30.8338 58.6614 30.8609 58.8871 31.1594C59.3088 31.7163 58.9897 33.9168 56.2641 36.3533C56.2641 36.3533 55.5589 37.5081 56.1736 37.8877C56.7883 38.2674 57.278 37.9055 57.6194 38.593C58.0103 39.3793 55.3257 45.5041 49.629 46.3026H49.6309Z" fill="#43DD81"/>
<g opacity="0.2">
<path d="M50.1635 28.9226C50.3174 29.2025 50.7167 29.209 50.8781 28.9338C51.0189 28.695 51.1887 28.4114 51.379 28.1073C51.2027 28.0047 50.9965 27.9553 50.7531 28.0047C50.4182 28.0738 50.1617 28.2976 49.9686 28.6269C50.0423 28.7202 50.1076 28.8209 50.1635 28.9217V28.9226Z" fill="#330000"/>
</g>
<g opacity="0.2">
<path d="M57.6212 38.5929C57.2798 37.9064 56.791 38.2674 56.1754 37.8877C55.5607 37.5081 56.2659 36.3533 56.2659 36.3533C58.9915 33.9168 59.3106 31.7163 58.8889 31.1594C58.6632 30.8609 57.9953 30.8338 57.4235 30.873C56.9617 30.9047 56.5886 30.5018 56.6567 30.0437C56.9104 28.346 57.3004 24.9254 56.3881 24.5523C56.0392 24.4096 55.5485 24.751 55.0262 25.3107C55.389 26.4282 55.0999 28.8927 54.8956 30.2536C54.8275 30.7116 55.1997 31.1146 55.6623 31.0829C56.2342 31.0437 56.902 31.0708 57.1278 31.3693C57.5494 31.9262 57.2304 34.1267 54.5047 36.5631C54.5047 36.5631 53.7995 37.718 54.4142 38.0976C55.029 38.4773 55.5187 38.1153 55.8601 38.8028C56.2407 39.5677 53.7109 45.3791 48.3333 46.4332C48.156 47.8445 47.3212 49.4835 47.3212 49.4835L48.379 49.6971C48.5581 48.0348 49.6317 46.3017 49.6317 46.3017C55.3284 45.5032 58.013 39.3793 57.6222 38.592L57.6212 38.5929Z" fill="#330000"/>
</g>
<g opacity="0.6">
<path d="M48.3781 49.6971C48.4732 48.81 48.823 47.9061 49.129 47.2532C48.8612 46.7373 47.2158 43.4146 47.1346 39.5276C47.0684 36.3533 48.171 35.6266 48.9601 35.8141C49.684 35.9858 50.3519 35.3636 50.3407 34.6201C50.3388 34.4895 50.3323 34.3487 50.3192 34.1957C50.1485 32.0857 50.2409 29.4048 51.5655 29.1324C52.1335 29.0158 52.5085 29.4253 52.7371 29.8404C52.891 30.1202 53.2902 30.1268 53.4516 29.8516C54.2296 28.527 55.9012 25.8732 56.9049 25.6614C56.8312 25.0896 56.6726 24.6698 56.3853 24.5523C55.4497 24.1708 53.4992 27.2603 52.6382 28.7238C52.4759 28.999 52.0776 28.9925 51.9237 28.7126C51.6951 28.2975 51.3201 27.888 50.7521 28.0046C49.4275 28.277 49.3351 30.9579 49.5058 33.0679C49.5179 33.22 49.5245 33.3618 49.5273 33.4924C49.5385 34.2358 48.8706 34.8589 48.1467 34.6863C47.3576 34.4989 46.255 35.2255 46.3212 38.3999C46.4089 42.632 48.3557 46.2037 48.3557 46.2037C48.2503 47.6608 47.3193 49.4844 47.3193 49.4844L48.3771 49.698L48.3781 49.6971Z" fill="white"/>
</g>
<path d="M47.365 49.366C49.364 42.2188 51.6895 35.1565 54.8574 28.4412C54.9189 28.3088 55.1409 28.3974 55.0756 28.542C52.1597 35.3198 50.0814 42.452 48.3445 49.6076C48.1878 50.2624 47.1981 50.0292 47.365 49.366Z" fill="#330000"/>
<path d="M52.2752 34.6136C53.5196 33.9252 54.86 33.2592 56.1893 32.8907C55.6249 33.2583 54.8917 33.5167 54.2882 33.8767C53.6726 34.2088 53.0541 34.5633 52.4972 34.9569C52.2705 35.1146 52.0373 34.7592 52.2752 34.6146V34.6136Z" fill="#330000"/>
<path d="M51.9273 35.5194C51.7547 33.9989 51.3685 32.5074 50.9628 31.0298C50.9413 30.9552 51.0542 30.9123 51.0868 30.9832C51.7454 32.4001 52.0989 33.9299 52.3321 35.4737C52.3648 35.7414 51.9544 35.7899 51.9264 35.5194H51.9273Z" fill="#330000"/>
<path d="M49.8798 41.7337C51.3518 40.8084 52.9972 40.2114 54.7052 39.9558C54.7379 39.9512 54.7677 39.9735 54.7724 40.0062C54.777 40.036 54.7565 40.064 54.7295 40.0715C53.1138 40.5248 51.5206 41.1545 50.1121 42.0686C49.891 42.2272 49.6513 41.8849 49.8798 41.7328V41.7337Z" fill="#330000"/>
<path d="M49.8611 41.2021C49.7455 39.7992 49.3593 38.6154 48.9265 37.3468C49.336 37.6835 49.6942 38.6248 49.9432 39.1443C50.2025 39.7712 50.4245 40.4018 50.6074 41.0706C50.6624 41.2739 50.543 41.4829 50.3406 41.5379C50.1139 41.6023 49.8779 41.4362 49.8602 41.2012L49.8611 41.2021Z" fill="#330000"/>
<path d="M48.3781 50.2018C48.3445 50.2018 48.311 50.1981 48.2783 50.1915L47.2205 49.9779C47.0657 49.9462 46.9351 49.8445 46.866 49.7027C46.7979 49.561 46.7989 49.3949 46.8707 49.2541C46.8791 49.2373 47.6972 47.6188 47.8408 46.3054C47.4742 45.5909 45.8978 42.2962 45.8176 38.4102C45.7765 36.4541 46.1506 35.1435 46.9295 34.5147C47.3222 34.1976 47.796 34.0838 48.2634 34.1957C48.4929 34.2498 48.6673 34.1444 48.7522 34.0773C48.9257 33.9383 49.0264 33.7219 49.0236 33.4998C49.0218 33.3786 49.0152 33.2489 49.004 33.109C48.8128 30.749 48.9434 27.8619 50.6514 27.5112C51.031 27.4338 51.7325 27.4431 52.2857 28.3311C55.1484 23.5029 56.1848 23.9246 56.5775 24.0859C56.959 24.2417 57.9721 24.6559 57.1549 30.1184C57.1419 30.2089 57.1838 30.2705 57.2109 30.2994C57.2379 30.3283 57.2939 30.3759 57.3881 30.3703C58.3834 30.3003 58.9879 30.457 59.2901 30.8553C59.9179 31.6837 59.5112 34.0996 56.6615 36.6761C56.4842 36.9951 56.3891 37.3691 56.4385 37.4596C56.599 37.5576 56.7445 37.5781 56.9282 37.6042C57.2557 37.6508 57.751 37.7217 58.0728 38.3691C58.4012 39.0295 57.7258 40.4493 57.4208 41.0285C56.8051 42.1964 54.4712 46.0079 49.9462 46.7644C49.6766 47.2467 49.0106 48.5367 48.88 49.7512C48.865 49.8921 48.7914 50.0208 48.6766 50.1038C48.5899 50.1673 48.4854 50.2009 48.3791 50.2009L48.3781 50.2018ZM47.9145 35.164C47.7932 35.164 47.6757 35.2097 47.5628 35.3002C47.3259 35.4914 46.7802 36.1751 46.8259 38.3896C46.9099 42.4418 48.7802 45.9277 48.7988 45.9622C48.8445 46.0471 48.866 46.1431 48.8585 46.2402C48.8455 46.422 48.8203 46.6086 48.7876 46.7952C49.0068 46.3521 49.1831 46.0657 49.2009 46.0368C49.2792 45.909 49.4107 45.8232 49.56 45.8027C52.7287 45.3586 54.7557 43.1693 55.682 41.9035C56.7995 40.3765 57.1801 39.0836 57.1531 38.787C57.0775 38.6434 57.0374 38.6378 56.7837 38.6014C56.557 38.5687 56.2464 38.5249 55.9087 38.3159C55.1886 37.871 55.3527 36.8775 55.8331 36.0893C55.8592 36.0473 55.891 36.0091 55.9273 35.9765C58.5112 33.6659 58.6754 31.7452 58.4832 31.4626C58.4413 31.429 58.1586 31.3273 57.4544 31.3758C57.0822 31.401 56.7212 31.2583 56.4665 30.9831C56.2128 30.7079 56.099 30.3386 56.1549 29.9682C56.7053 26.2911 56.363 25.1456 56.1848 25.0141C55.9889 25.0187 54.9871 25.7211 53.072 28.9785C52.9032 29.2658 52.5823 29.4291 52.2707 29.43C51.9415 29.4253 51.6392 29.2434 51.4806 28.9552C51.1905 28.4291 50.9452 28.4804 50.8519 28.4981C50.1281 28.6464 49.7969 30.4244 50.0068 33.0269C50.0199 33.192 50.0273 33.3441 50.0292 33.4849C50.0376 34.0166 49.7951 34.5315 49.3809 34.8645C48.9928 35.1752 48.4994 35.2899 48.0283 35.178C47.9891 35.1686 47.9509 35.164 47.9117 35.164H47.9145Z" fill="#330000"/>
<path d="M48.6879 79.9025C43.4707 80.4995 42.6125 82.2457 42.6125 82.2457C42.6125 82.2457 42.5043 80.3036 37.9288 77.7272C35.0707 76.119 31.0428 73.1023 29.1865 68.6855C28.0737 66.0354 27.737 62.8834 28.9002 59.2249C29.1642 58.3919 29.472 57.6186 29.8115 56.8994C33.4793 49.2159 41.3718 47.9921 49.2177 49.5788C52.6458 50.2718 55.8714 51.4602 58.4516 53.2913C62.332 56.0422 64.7518 60.237 64.1911 66.36C63.263 76.5556 53.9004 79.3074 48.6869 79.9016L48.6879 79.9025Z" fill="#FDFAFF"/>
<path d="M49.2187 49.5788C41.3719 47.9921 33.4803 49.2168 29.8125 56.8994L29.8153 56.9032C29.8153 56.9032 29.7174 58.5244 32.0046 58.6093C34.2956 58.6951 36.9737 55.6262 40.1256 56.1849C43.1825 56.725 42.5202 61.3629 46.6665 62.2015C50.8138 63.0401 52.005 58.5095 55.031 59.1988C58.1522 59.9078 59.4283 63.7761 61.5718 64.5877C63.7126 65.3983 64.2518 63.8657 64.2518 63.8657L64.2555 63.8629C63.861 55.3584 57.0645 51.1645 49.2177 49.5778L49.2187 49.5788Z" fill="#C288FF"/>
<g opacity="0.2">
<path d="M62.0261 66.7909C61.5905 71.3216 58.5039 75.1573 54.226 76.7114C52.3184 77.4044 50.4407 77.7673 48.9267 77.9389C43.9297 78.5108 43.1731 79.8587 43.1731 79.8587C43.1731 79.8587 43.0034 78.3233 38.621 75.8551C36.6994 74.7739 34.2266 73.0296 32.3087 70.6229C34.8208 72.5949 39.4718 74.6545 47.5135 73.606C57.3229 72.3234 60.0607 62.5457 58.6326 55.9825C61.084 58.5402 62.4599 62.0336 62.0345 66.6977C62.0317 66.7284 62.0289 66.7592 62.0261 66.79V66.7909Z" fill="#330000"/>
</g>
<g opacity="0.6">
<path d="M58.4525 53.2923C55.8724 51.4611 52.6467 50.2728 49.2187 49.5797C41.3719 47.993 33.4803 49.2177 29.8125 56.9004C29.473 57.6186 29.1651 58.3929 28.9012 59.2259C27.7379 62.8834 28.0747 66.0363 29.1875 68.6864C29.2873 68.9233 29.3965 69.1547 29.5084 69.3841C28.6941 66.9402 28.5504 64.1035 29.5774 60.8723C29.8414 60.0393 30.1492 59.266 30.4888 58.5468C32.0139 55.351 34.2713 53.2764 36.9513 52.0535C37.3207 51.8846 37.7404 51.9546 38.0753 52.1841C38.8412 52.7093 40.5753 52.9527 42.55 52.7428C44.6143 52.5236 46.3186 51.8753 46.8894 51.1645C47.0816 50.9248 47.3988 50.8194 47.7029 50.8595C48.4314 50.9556 49.1636 51.0778 49.895 51.2261C53.323 51.9192 56.5487 53.1076 59.1288 54.9387C61.0038 56.2679 62.5326 57.9386 63.555 59.9964C62.6147 57.1606 60.8051 54.9592 58.4535 53.2923H58.4525Z" fill="white"/>
</g>
<path d="M42.6152 82.9518C42.5676 82.9518 42.5191 82.9471 42.4706 82.9378C42.1619 82.8753 41.9408 82.6001 41.9231 82.2867C41.9231 82.2867 41.633 80.6067 37.5902 78.3316C33.6388 76.1077 24.8191 69.7749 28.2425 59.0168C31.0157 50.3016 38.5146 46.7093 49.3566 48.9014C60.1987 51.0935 65.7125 57.3172 64.8823 66.4252C63.8571 77.6683 53.2697 80.0768 48.7643 80.5908C44.1403 81.1179 43.2309 82.5618 43.2225 82.5758C43.1059 82.8137 42.8708 82.9518 42.6143 82.9518H42.6152ZM43.4482 49.6514C37.7301 49.6514 31.9886 51.8081 29.5615 59.4356C26.4459 69.2245 34.6136 75.0677 38.2692 77.1245C41.0639 78.6972 42.3083 80.0908 42.8615 81.0227C43.7336 80.3791 45.422 79.5778 48.6076 79.2149C52.7754 78.7392 62.5708 76.5294 63.5036 66.2983C64.4746 55.6475 56.1969 51.6961 49.0814 50.2568C47.2914 49.8949 45.3698 49.6505 43.4473 49.6505L43.4482 49.6514Z" fill="#330000"/>
</g>
<defs>
<clipPath id="clip0_14_2340">
<rect width="47.924" height="65" fill="white" transform="translate(22 24)"/>
</clipPath>
</defs>
</svg>
